<svg width="681" height="657" viewBox="0 0 681 657" fill="none" xmlns="http://www.w3.org/2000/svg">
<path d="M374.236 0.500895C346.108 3.71358 310.335 15.5365 296.007 59.3576C274.947 123.756 232.299 130.454 184.831 122.76C174.503 121.106 163.988 120.97 153.62 122.358C95.0207 130.229 12.4225 201.953 12.4225 289.418C12.4225 374.33 29.5461 420.833 55.4404 463.658C87.4227 516.668 145.974 583.877 201.377 575.942C235.865 570.978 259.093 549.357 278.321 523.077C318.479 468.156 341.916 455.611 409.639 449.33C411.101 449.185 412.611 449.025 414.089 448.816C472.688 440.945 523.192 380.626 524.188 321.513C525.248 257.645 540.846 179.094 522.019 117.33C502.502 53.3175 432.899 -6.08512 374.236 0.500895Z" fill="#8FACDA"/>
<path d="M423.887 594.977C398.057 617.835 346.783 615.378 323.86 589.531C300.938 563.685 314.222 524.089 340.084 501.183C365.947 478.276 408.418 468.654 431.277 494.484C454.135 520.314 449.701 572.103 423.887 594.977Z" fill="#8FACDA"/>
<path d="M295.38 613.579C286.883 625.852 265.085 630.124 252.812 621.611C240.54 613.097 241.953 595.138 250.451 582.866C258.949 570.593 275.783 562.127 288.056 570.625C300.328 579.123 303.83 601.291 295.38 613.579Z" fill="#8FACDA"/>
<path d="M129.509 73.3491L178.326 90.1514L164.142 131.434L108.739 112.062L118.265 84.7543L125.943 82.666L129.509 73.3491Z" fill="#0166A3"/>
<path d="M129.509 85.4122L120.803 87.9825L113.445 113.828L108.739 111.997L118.265 84.6894L125.943 82.6011L129.509 73.3003L134.649 74.987L129.509 85.4122Z" fill="white"/>
<path d="M127.71 78.1682L176.784 94.794L178.39 90.0871L129.509 73.3491L127.71 78.1682Z" fill="white"/>
<path d="M117.494 69.0923L115.277 76.5938L117.928 85.3804L125.959 82.5854L129.525 73.2846L117.494 69.0923Z" fill="#0166A3"/>
<path d="M127.71 78.168L121.429 75.2282L115.277 76.5938L117.494 69.0923L130.248 73.5097L127.71 78.168Z" fill="white"/>
<path d="M82.3148 72.2244C82.1889 72.2122 82.0649 72.1852 81.9453 72.144C81.806 72.1004 81.6768 72.0293 81.5654 71.9349C81.454 71.8406 81.3627 71.7248 81.2968 71.5945C81.2309 71.4642 81.1918 71.3221 81.1818 71.1765C81.1718 71.0308 81.1911 70.8843 81.2385 70.7463L88.3707 49.9763C88.414 49.8371 88.4852 49.7083 88.5798 49.5975C88.6745 49.4866 88.7907 49.3962 88.9214 49.3316C89.0521 49.267 89.1945 49.2297 89.3401 49.2218C89.4857 49.2139 89.6313 49.2356 89.7682 49.2857C89.9075 49.3293 90.0367 49.4004 90.1481 49.4947C90.2595 49.5891 90.3508 49.7049 90.4167 49.8352C90.4826 49.9654 90.5217 50.1076 90.5317 50.2532C90.5417 50.3989 90.5224 50.545 90.475 50.683L83.3428 71.4533C83.2749 71.674 83.1389 71.8674 82.9542 72.0059C82.7695 72.1445 82.5456 72.221 82.3148 72.2244Z" fill="#1A1A1A"/>
<path d="M168.912 142.422C168.79 142.437 168.666 142.437 168.543 142.422C168.267 142.327 168.04 142.127 167.91 141.865C167.781 141.604 167.76 141.301 167.852 141.024L171.418 130.648C171.463 130.51 171.536 130.382 171.631 130.273C171.726 130.163 171.842 130.073 171.972 130.009C172.102 129.945 172.244 129.907 172.389 129.898C172.533 129.889 172.679 129.909 172.816 129.957C172.955 130 173.084 130.071 173.195 130.166C173.306 130.261 173.396 130.377 173.461 130.508C173.525 130.638 173.563 130.781 173.57 130.926C173.578 131.072 173.557 131.218 173.506 131.355L169.94 141.715C169.873 141.931 169.735 142.118 169.548 142.246C169.362 142.374 169.138 142.436 168.912 142.422Z" fill="#1A1A1A"/>
<path d="M72.7567 81.2681C72.6341 81.2847 72.5099 81.2847 72.3873 81.2681C72.2479 81.2245 72.1188 81.1535 72.0074 81.0591C71.896 80.9647 71.8046 80.849 71.7387 80.7187C71.6728 80.5884 71.6337 80.4463 71.6237 80.3006C71.6137 80.155 71.633 80.0089 71.6805 79.8708L77.5597 62.6991C77.6534 62.42 77.8542 62.1893 78.1178 62.0583C78.3813 61.9272 78.6862 61.9065 78.9652 62.0002C79.2443 62.094 79.4747 62.2947 79.6057 62.5583C79.7368 62.8219 79.7577 63.1267 79.664 63.4058L73.7848 80.5775C73.7035 80.7832 73.5617 80.9593 73.3781 81.0826C73.1945 81.206 72.9779 81.2706 72.7567 81.2681Z" fill="#1A1A1A"/>
<path d="M179.322 89.6054C179.263 89.4746 179.176 89.358 179.068 89.2638C178.96 89.1695 178.833 89.0996 178.695 89.0591L130.023 72.2889C130.023 72.2889 129.943 72.2889 129.879 72.2889C129.806 72.255 129.731 72.2281 129.654 72.2085L118.12 68.2409C118.029 68.1735 117.925 68.1243 117.815 68.0962C117.72 68.073 117.621 68.073 117.526 68.0962L96.8682 61.0123C96.7333 60.9562 96.5886 60.9272 96.4425 60.9272C96.2964 60.9272 96.1517 60.9562 96.0168 61.0123C95.8861 61.0713 95.7695 61.1576 95.6753 61.2657C95.581 61.3738 95.5112 61.5011 95.4707 61.6386L81.2706 102.922C81.1655 103.196 81.1655 103.499 81.2706 103.773C81.3321 103.902 81.4194 104.017 81.5271 104.111C81.6349 104.205 81.7608 104.276 81.8971 104.319L163.724 132.479C163.857 132.542 164.003 132.574 164.15 132.574C164.297 132.574 164.443 132.542 164.576 132.479C164.705 132.417 164.82 132.33 164.914 132.222C165.008 132.114 165.078 131.988 165.122 131.852L179.354 90.5689C179.415 90.4147 179.444 90.2497 179.439 90.0838C179.433 89.918 179.393 89.7551 179.322 89.6054ZM118.682 83.951C117.751 81.0114 116.658 77.3648 116.466 76.5617C116.61 75.887 117.429 73.2044 118.265 70.57L128.128 73.9435L125.108 81.7019L118.682 83.951ZM163.483 129.973L110.104 111.596L118.827 86.2319L126.361 83.6133C126.512 83.5579 126.649 83.4706 126.763 83.3569C126.876 83.2431 126.964 83.1059 127.019 82.9549L130.232 74.6502L177.025 90.7136L163.483 129.973Z" fill="#1A1A1A"/>
<path d="M89.1735 98.504C88.9515 98.5008 88.7354 98.4321 88.5524 98.3063C88.3695 98.1806 88.2279 98.0034 88.1454 97.7973C88.0486 97.524 88.0594 97.224 88.1758 96.9584C88.2922 96.6929 88.5053 96.4818 88.7719 96.3678L108.048 88.9142C108.321 88.8089 108.624 88.8157 108.892 88.933C109.16 89.0503 109.37 89.269 109.478 89.5409C109.58 89.8119 109.573 90.1118 109.459 90.3782C109.346 90.6445 109.134 90.8565 108.867 90.9703L89.5911 98.424C89.4622 98.4894 89.3175 98.5169 89.1735 98.504Z" fill="white"/>
<path d="M93.9606 102.263C93.7015 102.267 93.449 102.181 93.2469 102.019C93.0449 101.857 92.906 101.629 92.8544 101.375C92.8029 101.121 92.8419 100.857 92.9648 100.629C93.0876 100.401 93.2865 100.223 93.5269 100.126L100.98 97.0743C101.113 97.0191 101.256 96.9907 101.399 96.9907C101.543 96.9907 101.686 97.019 101.819 97.0743C101.951 97.1295 102.072 97.2103 102.174 97.3123C102.275 97.4143 102.355 97.5353 102.41 97.6684C102.518 97.9351 102.518 98.2338 102.41 98.5006C102.302 98.7674 102.095 98.9817 101.832 99.0983L94.3622 102.15C94.3068 102.196 94.2425 102.23 94.1733 102.249C94.1041 102.268 94.0317 102.273 93.9606 102.263Z" fill="white"/>
<path d="M131.276 88.0947C129.347 88.0916 127.46 88.6606 125.855 89.7301C124.249 90.7996 122.997 92.3215 122.256 94.1028C121.516 95.8842 121.321 97.8451 121.695 99.7376C122.069 101.63 122.997 103.369 124.36 104.734C125.723 106.1 127.46 107.03 129.352 107.407C131.244 107.785 133.205 107.593 134.988 106.855C136.77 106.118 138.294 104.868 139.366 103.264C140.438 101.66 141.011 99.7745 141.011 97.8454C141.002 95.2647 139.974 92.7921 138.151 90.9658C136.328 89.1396 133.857 88.1074 131.276 88.0947Z" fill="#1A1A1A"/>
<path d="M131.276 105.379C133.274 105.379 135.19 104.586 136.603 103.173C138.016 101.76 138.81 99.8437 138.81 97.8457C138.81 95.8476 138.016 93.9312 136.603 92.5184C135.19 91.1055 133.274 90.312 131.276 90.312C131.928 91.556 132.27 92.9393 132.272 94.344C132.274 96.3079 131.604 98.2132 130.374 99.7442C129.144 101.275 127.427 102.34 125.509 102.761C126.225 103.588 127.111 104.249 128.106 104.701C129.101 105.153 130.183 105.384 131.276 105.379Z" fill="#0166A3"/>
<path d="M156.013 96.4482C154.084 96.4482 152.198 97.0205 150.595 98.0926C148.991 99.1647 147.741 100.689 147.004 102.471C146.266 104.254 146.074 106.215 146.451 108.107C146.829 109.999 147.759 111.736 149.124 113.099C150.49 114.462 152.229 115.39 154.121 115.764C156.013 116.138 157.974 115.943 159.756 115.203C161.537 114.462 163.059 113.21 164.128 111.604C165.198 109.999 165.767 108.112 165.764 106.183C165.76 103.6 164.73 101.124 162.902 99.2986C161.074 97.4735 158.597 96.4482 156.013 96.4482Z" fill="#1A1A1A"/>
<path d="M156.014 113.716C158.012 113.716 159.928 112.923 161.341 111.51C162.754 110.097 163.547 108.181 163.547 106.183C163.547 104.185 162.754 102.269 161.341 100.856C159.928 99.4428 158.012 98.6489 156.014 98.6489C156.661 99.8998 156.997 101.288 156.994 102.697C156.992 104.66 156.322 106.564 155.092 108.094C153.862 109.625 152.148 110.69 150.231 111.114C150.951 111.938 151.841 112.597 152.838 113.046C153.836 113.495 154.919 113.724 156.014 113.716Z" fill="#0166A3"/>
<path d="M47.023 178.387L94.9885 159.304L111.164 199.848L56.5487 221.293L45.9307 194.371L38.397 190.146L35.1843 183.062L47.023 178.387Z" fill="#0166A3"/>
<path d="M35.9874 183.271L38.1239 189.407L44.999 183.528L53.3681 181.44L54.5568 175.368L35.9874 183.271Z" fill="white"/>
<path d="M61.1748 219.671L51.7938 196.331L55.1028 190.082L59.9219 178.131C59.9219 178.131 97.5907 167.095 97.5907 166.549C97.5907 166.003 95.0205 159.304 95.0205 159.304L54.5888 175.368L50.7175 188.427L45.8985 194.371L56.5646 222.241L61.1748 219.671Z" fill="white"/>
<path d="M68.5644 193.021C68.3875 193.016 68.2132 192.978 68.0504 192.909C67.7923 192.775 67.5971 192.545 67.5069 192.269C67.4168 191.992 67.4389 191.691 67.5685 191.431L70.6527 185.552C70.7159 185.421 70.8048 185.303 70.914 185.207C71.0233 185.11 71.1507 185.037 71.2888 184.991C71.4269 184.944 71.5729 184.926 71.7182 184.937C71.8635 184.947 72.0051 184.987 72.1348 185.054C72.2644 185.12 72.3795 185.212 72.4732 185.324C72.5669 185.435 72.6373 185.565 72.6803 185.704C72.7233 185.843 72.738 185.989 72.7236 186.134C72.7092 186.279 72.6659 186.42 72.5963 186.548L69.5122 192.427C69.4301 192.608 69.2964 192.761 69.1279 192.867C68.9593 192.973 68.7633 193.026 68.5644 193.021Z" fill="#1A1A1A"/>
<path d="M74.5881 192.685C74.4104 192.688 74.2343 192.649 74.0741 192.572C73.9453 192.509 73.8305 192.421 73.7363 192.313C73.6421 192.205 73.5704 192.079 73.5256 191.943C73.4807 191.807 73.4634 191.663 73.4749 191.52C73.4863 191.377 73.5262 191.238 73.5922 191.11L77.2707 183.898C77.3354 183.769 77.4251 183.654 77.5347 183.559C77.6443 183.465 77.7715 183.393 77.9089 183.348C78.0464 183.303 78.1914 183.286 78.3355 183.298C78.4797 183.31 78.6201 183.35 78.7486 183.416C78.878 183.48 78.9932 183.57 79.0872 183.68C79.1811 183.79 79.252 183.918 79.2955 184.056C79.3389 184.194 79.3542 184.339 79.3402 184.483C79.3263 184.627 79.2835 184.767 79.2144 184.894L75.5359 192.106C75.4498 192.283 75.3148 192.432 75.1468 192.534C74.9788 192.637 74.7849 192.689 74.5881 192.685Z" fill="#1A1A1A"/>
<path d="M112.161 199.415L96.0169 158.871C95.9042 158.608 95.6982 158.396 95.4386 158.277C95.1658 158.165 94.8601 158.165 94.5872 158.277L14.27 190.291C14.0061 190.41 13.7948 190.621 13.6757 190.885C13.5641 191.158 13.5641 191.464 13.6757 191.736L29.7391 232.281C29.8223 232.485 29.9645 232.66 30.1477 232.783C30.3308 232.906 30.5465 232.972 30.7672 232.972C30.9006 232.987 31.0353 232.987 31.1688 232.972L111.566 200.845C111.829 200.732 112.041 200.526 112.161 200.266C112.217 200.131 112.246 199.987 112.246 199.841C112.246 199.695 112.217 199.55 112.161 199.415ZM36.7588 183.64L53.4488 176.99L49.6739 187.914L45.7704 193.6C43.12 191.994 39.8912 189.937 39.1844 189.407C38.9274 188.797 37.819 186.211 36.7588 183.64ZM57.2397 220.105L47.3446 195.254L51.6175 189.054C51.6744 188.974 51.7229 188.888 51.7621 188.797L56.2117 175.946L94.4105 160.75L109.703 199.302L57.2397 220.105Z" fill="#1A1A1A"/>
<path d="M146.279 342.668L150.938 347.278L178.631 319.81L182.775 329.111L206.79 351.246C206.79 351.246 210.196 348.788 209.473 349.045C208.75 349.302 179.065 313.979 179.065 313.979L146.279 342.668Z" fill="white"/>
<path d="M227.142 380.434L225.167 373.735L226.966 367.792C227.024 367.613 227.034 367.423 226.994 367.239C226.955 367.056 226.867 366.886 226.741 366.747L179.948 313.192C179.853 313.08 179.735 312.988 179.602 312.925C179.469 312.861 179.324 312.826 179.177 312.823C178.881 312.802 178.588 312.893 178.358 313.08L145.508 341.833C145.387 341.926 145.288 342.043 145.216 342.177C145.144 342.311 145.101 342.459 145.091 342.611C145.08 342.763 145.102 342.915 145.154 343.058C145.207 343.201 145.289 343.331 145.395 343.439L202.373 408.577C202.478 408.698 202.609 408.794 202.756 408.858C202.904 408.922 203.063 408.952 203.224 408.946C203.489 408.957 203.748 408.865 203.947 408.689L212.075 401.669C212.193 401.586 212.283 401.468 212.332 401.332L218.581 389.285L226.853 381.638C227.018 381.49 227.133 381.296 227.185 381.081C227.237 380.866 227.222 380.64 227.142 380.434ZM178.952 315.473L208.252 348.966C206.486 350.383 204.827 351.93 203.288 353.592C203.176 353.784 202.951 354.138 201.152 362.491L180.719 380.385L147.805 342.749L178.952 315.473Z" fill="#1A1A1A"/>
<path d="M201.2 362.491C202.999 354.138 203.224 353.784 203.321 353.592C204.838 351.909 206.499 350.361 208.284 348.966L178.984 315.473L147.821 342.781L180.719 380.418L201.2 362.491Z" fill="#0166A3"/>
<path d="M189.361 348.371H189.185L168.784 345.287C168.64 345.267 168.502 345.219 168.378 345.145C168.253 345.071 168.145 344.973 168.059 344.856C167.974 344.738 167.913 344.605 167.88 344.464C167.847 344.323 167.843 344.177 167.868 344.034C167.886 343.891 167.932 343.753 168.005 343.629C168.077 343.504 168.174 343.396 168.29 343.31C168.406 343.225 168.538 343.163 168.678 343.13C168.818 343.097 168.963 343.093 169.105 343.118L189.522 346.203C189.789 346.249 190.03 346.393 190.198 346.607C190.365 346.821 190.446 347.089 190.426 347.36C190.406 347.63 190.286 347.884 190.089 348.071C189.892 348.258 189.633 348.365 189.361 348.371Z" fill="#1A1A1A"/>
<path d="M179.21 351.905H179.065L171.033 350.829C170.889 350.811 170.75 350.765 170.625 350.693C170.499 350.621 170.388 350.525 170.3 350.409C170.212 350.294 170.147 350.163 170.111 350.022C170.074 349.882 170.065 349.736 170.086 349.592C170.103 349.448 170.15 349.308 170.222 349.182C170.293 349.055 170.389 348.944 170.504 348.854C170.619 348.765 170.751 348.699 170.891 348.66C171.031 348.621 171.178 348.611 171.322 348.629L179.354 349.705C179.499 349.723 179.638 349.769 179.765 349.84C179.892 349.912 180.003 350.009 180.092 350.124C180.182 350.238 180.248 350.369 180.287 350.51C180.325 350.65 180.336 350.797 180.318 350.942C180.279 351.208 180.146 351.453 179.943 351.63C179.739 351.806 179.479 351.904 179.21 351.905Z" fill="#1A1A1A"/>
<path d="M45.433 314.301L30.5903 342.46L60.6129 388.193L75.7929 360.001L45.433 314.301Z" fill="#0166A3"/>
<path d="M46.5738 314.301H76.3072L106.683 360.114H75.7932L46.5738 314.301Z" fill="white"/>
<path d="M107.679 360.547C107.693 360.473 107.693 360.396 107.679 360.322V359.952C107.679 359.872 107.679 359.776 107.679 359.695L107.566 359.503L77.2387 313.658C77.1306 313.512 76.9904 313.392 76.8289 313.308C76.6673 313.225 76.4888 313.179 76.307 313.176H45.3206C45.3206 313.176 45.2081 313.176 45.1439 313.176C45.1439 313.176 45.1439 313.176 44.9833 313.176C44.8226 313.176 44.9833 313.176 44.9833 313.176L44.8387 313.272L44.7262 313.384C44.7262 313.384 44.7262 313.497 44.6299 313.529L29.8033 341.721C29.8033 341.721 29.8033 341.72 29.8033 341.833C29.8033 341.945 29.8033 341.833 29.8033 341.929C29.8033 342.026 29.8033 341.929 29.8033 342.042V342.379C29.7948 342.397 29.7903 342.416 29.7903 342.435C29.7903 342.455 29.7948 342.474 29.8033 342.492C29.7911 342.528 29.7911 342.568 29.8033 342.604C29.8033 342.604 29.8033 342.604 29.8033 342.7C29.8033 342.797 29.8033 342.7 29.8033 342.813C29.8033 342.925 29.8033 342.813 29.8033 342.813L59.8419 388.642L59.9544 388.787C60.0347 388.787 60.0668 388.899 60.1471 388.931C60.2117 388.981 60.2905 389.009 60.372 389.011C60.4569 389.028 60.5442 389.028 60.6291 389.011H91.246C91.442 389.012 91.6343 388.958 91.8016 388.856C91.9689 388.754 92.1046 388.607 92.1937 388.433L107.647 360.161L107.679 360.547ZM31.9397 342.347L45.6097 316.388L74.6203 360.097L60.613 386.088L31.9397 342.347ZM75.7608 315.328L104.675 358.957H76.3873L47.4731 315.328H75.7608Z" fill="#1A1A1A"/>
<path d="M52.0511 333.577C49.224 331.97 44.9511 334.235 42.4131 338.765C41.2816 340.67 40.6516 342.831 40.5818 345.046C40.501 345.958 40.6653 346.876 41.0579 347.703C41.4504 348.531 42.0569 349.238 42.8147 349.753C43.4289 350.108 44.1295 350.285 44.8387 350.267C45.9745 350.24 47.0831 349.913 48.0514 349.319C49.9344 348.124 51.478 346.465 52.5331 344.5C55.0711 340.002 54.8783 335.183 52.0511 333.577Z" fill="#1A1A1A"/>
<path d="M50.9425 335.505C50.6614 335.353 50.3462 335.276 50.0269 335.28C48.4205 335.28 45.9789 336.886 44.2922 339.89C43.3187 341.446 42.7652 343.228 42.6859 345.062C42.6157 345.587 42.6841 346.121 42.8841 346.612C43.0842 347.102 43.409 347.531 43.8264 347.857C44.2756 348.038 44.7622 348.106 45.2437 348.056C45.7252 348.005 46.1872 347.838 46.5893 347.568C46.1025 345.009 46.6265 342.361 48.0511 340.179C48.9324 338.63 50.1246 337.278 51.5529 336.211C51.4068 335.932 51.1979 335.69 50.9425 335.505Z" fill="#0166A3"/>
<path d="M63.1513 351.535C60.3241 349.929 56.0512 352.194 53.5132 356.724C52.3798 358.628 51.7496 360.79 51.682 363.005C51.6028 363.917 51.7679 364.833 52.1603 365.661C52.5527 366.488 53.1583 367.196 53.9148 367.711C54.5296 368.065 55.2298 368.243 55.9388 368.225C57.0754 368.19 58.1829 367.857 59.1515 367.261C61.028 366.094 62.5717 364.462 63.6332 362.523C66.1712 357.961 65.9784 353.158 63.1513 351.535Z" fill="#1A1A1A"/>
<path d="M62.0587 353.448C61.7717 353.296 61.4514 353.219 61.127 353.223C59.5206 353.223 57.0951 354.829 55.3923 357.817C54.4279 359.383 53.8754 361.168 53.786 363.006C53.7158 363.53 53.7842 364.064 53.9842 364.555C54.1843 365.045 54.5091 365.475 54.9265 365.801C55.3757 365.981 55.8623 366.049 56.3438 365.999C56.8253 365.948 57.2873 365.781 57.6894 365.511C57.1992 362.952 57.7234 360.302 59.1512 358.122C60.0326 356.568 61.2246 355.212 62.653 354.139C62.5163 353.862 62.3118 353.624 62.0587 353.448Z" fill="#0166A3"/>
<path d="M76.5315 381.526C76.3382 381.534 76.1467 381.486 75.979 381.389C75.8113 381.293 75.6743 381.151 75.5838 380.98C75.442 380.725 75.4046 380.426 75.4795 380.144C75.5544 379.862 75.7358 379.621 75.9854 379.47L93.8158 369.366C93.9416 369.279 94.0841 369.219 94.2343 369.19C94.3845 369.16 94.5391 369.162 94.6885 369.195C94.8378 369.229 94.9786 369.293 95.1021 369.383C95.2255 369.474 95.3288 369.589 95.4056 369.721C95.4823 369.854 95.5309 370.001 95.5481 370.153C95.5653 370.305 95.5508 370.459 95.5056 370.605C95.4604 370.751 95.3854 370.886 95.2853 371.002C95.1852 371.118 95.0623 371.212 94.9242 371.278L77.0938 381.382C76.9238 381.482 76.7288 381.532 76.5315 381.526Z" fill="white"/>
<path d="M84.2584 383.92C84.012 383.928 83.7703 383.851 83.5727 383.704C83.375 383.557 83.233 383.347 83.1697 383.109C83.1064 382.871 83.1255 382.618 83.2241 382.392C83.3226 382.166 83.4946 381.98 83.7123 381.864L90.2501 378.121C90.5048 377.979 90.8045 377.942 91.0862 378.017C91.3679 378.092 91.6095 378.273 91.7601 378.523C91.8979 378.778 91.9331 379.077 91.8585 379.357C91.7838 379.638 91.605 379.879 91.3585 380.033L84.8046 383.775C84.6403 383.875 84.4506 383.926 84.2584 383.92Z" fill="white"/>
<path d="M77.2705 332.966C77.1587 332.982 77.0451 332.982 76.9332 332.966L62.6046 328.549C62.4666 328.51 62.3378 328.444 62.2256 328.355C62.1135 328.266 62.0202 328.155 61.9514 328.029C61.8826 327.904 61.8396 327.766 61.8248 327.623C61.8101 327.481 61.824 327.337 61.8657 327.2C61.9512 326.922 62.1421 326.689 62.3974 326.551C62.6527 326.413 62.9521 326.38 63.2311 326.461L77.5597 330.878C77.6976 330.917 77.8265 330.983 77.9387 331.072C78.0508 331.161 78.1441 331.272 78.2129 331.397C78.2817 331.523 78.3247 331.661 78.3395 331.804C78.3542 331.946 78.3403 332.09 78.2986 332.227C78.2295 332.445 78.0922 332.634 77.907 332.767C77.7218 332.9 77.4986 332.97 77.2705 332.966Z" fill="#254E96"/>
<path d="M73.5604 326.461C73.4485 326.477 73.3349 326.477 73.223 326.461L68.0024 324.854C67.7421 324.758 67.5283 324.566 67.4045 324.317C67.2807 324.069 67.2563 323.782 67.336 323.516C67.4158 323.25 67.5939 323.025 67.8341 322.885C68.0742 322.746 68.3584 322.703 68.6289 322.766L73.8495 324.372C74.127 324.458 74.3598 324.649 74.498 324.904C74.6362 325.159 74.6686 325.459 74.5884 325.738C74.5166 325.952 74.378 326.138 74.1931 326.268C74.0081 326.398 73.7864 326.466 73.5604 326.461Z" fill="#254E96"/>
<path d="M158.439 228.313L201.81 200.154L225.6 236.73L176.302 268.52L160.608 244.232L163.644 236.843L158.439 228.313Z" fill="#0166A3"/>
<path d="M180.35 266.11L165.17 244.665L168.383 234.642L166.166 228.859L203.305 203.029L201.795 200.122L158.423 228.859L163.596 236.891L160.881 244.923L176.254 268.552L180.35 266.11Z" fill="white"/>
<path d="M147.741 235.221L152.303 241.646L160.865 244.955L163.58 236.923L158.44 228.394L147.741 235.221Z" fill="#0166A3"/>
<path d="M147.741 235.22L150.054 238.433L154.359 234.289C154.359 234.289 161.46 232.923 160.978 232.554C160.026 231.194 159.168 229.772 158.407 228.297L147.741 235.22Z" fill="white"/>
<path d="M226.484 236.136L202.662 199.56C202.582 199.428 202.476 199.314 202.35 199.225C202.224 199.136 202.081 199.075 201.929 199.045C201.778 199.014 201.622 199.016 201.472 199.049C201.321 199.083 201.18 199.147 201.055 199.239L157.893 227.318L157.748 227.398C157.68 227.432 157.619 227.482 157.572 227.542L147.387 234.192C147.27 234.227 147.157 234.276 147.05 234.337C146.979 234.405 146.903 234.47 146.825 234.53L128.529 246.433C128.405 246.511 128.298 246.615 128.215 246.736C128.132 246.858 128.075 246.995 128.047 247.14C128.014 247.281 128.01 247.428 128.035 247.572C128.06 247.715 128.113 247.852 128.192 247.975L152.014 284.551C152.111 284.707 152.246 284.836 152.406 284.926C152.566 285.015 152.746 285.064 152.929 285.066C153.14 285.066 153.347 285.005 153.524 284.889L226.05 237.678C226.186 237.612 226.306 237.517 226.402 237.401C226.499 237.285 226.57 237.149 226.611 237.004C226.652 236.858 226.662 236.706 226.64 236.557C226.618 236.407 226.565 236.264 226.484 236.136ZM160.174 243.493C157.266 242.433 153.748 241.068 152.961 240.698C152.528 240.184 150.905 237.903 149.331 235.59L158.07 229.887L162.375 236.988L160.174 243.493ZM176.671 267.235L162.037 244.746L164.623 237.212C164.674 237.061 164.69 236.9 164.67 236.742C164.651 236.583 164.596 236.431 164.511 236.297L159.949 228.651L201.409 201.664L224.026 236.409L176.671 267.235Z" fill="#1A1A1A"/>
<path d="M152.672 276.069C152.561 276.092 152.446 276.092 152.335 276.069C152.197 276.03 152.068 275.965 151.956 275.875C151.844 275.786 151.75 275.676 151.682 275.55C151.613 275.424 151.57 275.286 151.555 275.144C151.54 275.001 151.554 274.857 151.596 274.72L157.523 254.93C157.62 254.669 157.812 254.455 158.06 254.332C158.309 254.208 158.595 254.184 158.861 254.263C159.127 254.343 159.353 254.521 159.492 254.761C159.632 255.001 159.674 255.286 159.612 255.556L153.7 275.346C153.631 275.562 153.493 275.749 153.307 275.88C153.122 276.01 152.899 276.077 152.672 276.069Z" fill="white"/>
<path d="M158.52 274.56C158.419 274.583 158.315 274.583 158.215 274.56C157.935 274.481 157.697 274.295 157.553 274.043C157.409 273.791 157.369 273.492 157.443 273.21L159.612 265.42C159.701 265.151 159.89 264.926 160.139 264.792C160.389 264.658 160.68 264.625 160.954 264.699C161.227 264.773 161.462 264.948 161.61 265.19C161.757 265.432 161.807 265.721 161.748 265.998L159.58 273.789C159.504 274.011 159.361 274.204 159.172 274.342C158.982 274.48 158.754 274.556 158.52 274.56Z" fill="white"/>
<path d="M200.686 237.389C198.524 237.402 196.421 236.677 194.727 235.333C192.706 233.756 191.385 231.448 191.048 228.907C190.878 227.641 190.967 226.352 191.31 225.121C191.652 223.889 192.241 222.74 193.04 221.743C193.816 220.736 194.783 219.894 195.886 219.262C196.988 218.631 198.205 218.224 199.466 218.065C200.735 217.893 202.026 217.981 203.26 218.324C204.494 218.666 205.646 219.256 206.646 220.056C208.161 221.245 209.291 222.856 209.892 224.686C210.493 226.515 210.538 228.482 210.023 230.338C209.508 232.194 208.454 233.855 206.995 235.113C205.537 236.37 203.738 237.168 201.827 237.405L200.686 237.389Z" fill="#1A1A1A"/>
<path d="M201.602 235.107C203.497 234.858 205.227 233.898 206.44 232.422C207.654 230.945 208.261 229.062 208.139 227.155C208.016 225.248 207.173 223.458 205.78 222.149C204.388 220.84 202.55 220.109 200.638 220.104C200.349 220.104 200.012 220.104 199.691 220.104C197.732 220.344 195.947 221.349 194.727 222.9C196.036 223.129 197.274 223.66 198.343 224.449C199.413 225.238 200.285 226.265 200.89 227.448C201.496 228.631 201.819 229.939 201.833 231.268C201.848 232.597 201.555 233.911 200.976 235.107H201.602Z" fill="#254E96"/>
<path d="M188.542 240.842C188.396 239.571 187.997 238.342 187.371 237.226C186.744 236.111 185.901 235.131 184.892 234.345C183.883 233.558 182.727 232.981 181.492 232.645C180.257 232.31 178.968 232.225 177.7 232.393C176.437 232.545 175.218 232.949 174.114 233.581C173.011 234.213 172.045 235.06 171.274 236.072C169.688 238.109 168.975 240.693 169.291 243.255C169.607 245.818 170.927 248.151 172.961 249.742C174.661 251.076 176.76 251.8 178.92 251.798C179.322 251.798 179.724 251.798 180.125 251.798C181.386 251.638 182.602 251.231 183.705 250.6C184.808 249.969 185.775 249.126 186.551 248.119C187.355 247.102 187.946 245.934 188.288 244.684C188.63 243.433 188.717 242.127 188.542 240.842Z" fill="#1A1A1A"/>
<path d="M179.836 249.516C180.814 249.399 181.759 249.088 182.617 248.603C183.474 248.118 184.227 247.467 184.831 246.689C185.46 245.919 185.926 245.03 186.203 244.075C186.479 243.119 186.559 242.118 186.438 241.131C186.217 239.313 185.336 237.639 183.962 236.428C182.588 235.216 180.816 234.552 178.984 234.562C177.85 234.57 176.73 234.827 175.706 235.315C174.682 235.804 173.777 236.512 173.057 237.389C174.366 237.619 175.604 238.149 176.673 238.938C177.743 239.728 178.615 240.754 179.22 241.937C179.826 243.12 180.149 244.428 180.163 245.757C180.178 247.086 179.885 248.4 179.306 249.597C179.481 249.56 179.658 249.533 179.836 249.516Z" fill="#254E96"/>
<path d="M32.1648 224.088C31.9802 224.094 31.7991 224.038 31.6507 223.928C31.5221 223.86 31.4081 223.768 31.3157 223.656C31.2232 223.544 31.1539 223.414 31.1121 223.275C31.0702 223.136 31.0565 222.99 31.0717 222.846C31.087 222.701 31.1309 222.561 31.201 222.434L40.839 204.234C40.9048 204.104 40.9964 203.988 41.1082 203.894C41.22 203.8 41.3497 203.73 41.4895 203.688C41.6292 203.646 41.776 203.633 41.921 203.649C42.066 203.666 42.2062 203.712 42.3329 203.784C42.4621 203.853 42.5764 203.947 42.6691 204.06C42.7617 204.174 42.831 204.305 42.8728 204.445C42.9146 204.586 42.9282 204.733 42.9127 204.879C42.8973 205.024 42.8531 205.165 42.7827 205.294L33.1446 223.494C33.0483 223.671 32.9069 223.818 32.7348 223.923C32.5627 224.027 32.366 224.085 32.1648 224.088Z" fill="white"/>
<path d="M38.1881 223.751C38.0107 223.751 37.8354 223.713 37.6741 223.639C37.5453 223.576 37.4305 223.487 37.3363 223.379C37.2421 223.271 37.1704 223.145 37.1255 223.009C37.0806 222.873 37.0634 222.729 37.0748 222.586C37.0863 222.443 37.1262 222.304 37.1922 222.177L40.8707 214.964C41.0028 214.704 41.2327 214.508 41.5098 214.417C41.787 214.327 42.0887 214.35 42.3485 214.483C42.6084 214.615 42.8052 214.844 42.8956 215.121C42.9859 215.399 42.9625 215.7 42.8304 215.96L39.1519 223.157C39.0671 223.339 38.9305 223.493 38.7592 223.599C38.5879 223.704 38.3893 223.757 38.1881 223.751Z" fill="white"/>
<path d="M124.738 193.825C124.515 193.826 124.297 193.761 124.111 193.638C123.925 193.515 123.78 193.34 123.694 193.134L115.357 172.942C115.245 172.672 115.244 172.368 115.356 172.097C115.467 171.826 115.681 171.61 115.951 171.497C116.22 171.394 116.519 171.398 116.785 171.508C117.051 171.619 117.264 171.827 117.381 172.091L125.718 192.379C125.827 192.648 125.827 192.949 125.719 193.218C125.612 193.487 125.404 193.705 125.139 193.825C125.008 193.858 124.87 193.858 124.738 193.825Z" fill="#1A1A1A"/>
<path d="M123.502 206.949C123.281 206.949 123.065 206.884 122.882 206.76C122.699 206.637 122.557 206.462 122.473 206.258L115.566 189.488C115.458 189.221 115.458 188.923 115.566 188.656C115.674 188.389 115.881 188.175 116.144 188.058C116.414 187.949 116.714 187.949 116.984 188.057C117.253 188.164 117.47 188.372 117.59 188.637L124.497 205.407C124.553 205.54 124.581 205.682 124.581 205.826C124.581 205.97 124.553 206.112 124.497 206.245C124.442 206.378 124.361 206.499 124.259 206.6C124.157 206.702 124.036 206.782 123.903 206.837C123.784 206.914 123.644 206.953 123.502 206.949Z" fill="#1A1A1A"/>
<path d="M9.45094 202.435C9.22894 202.431 9.01285 202.362 8.82989 202.237C8.64694 202.111 8.50532 201.934 8.42288 201.728L0.0859447 181.44C-0.0264488 181.173 -0.0286869 180.873 0.0797067 180.605C0.1881 180.337 0.398288 180.123 0.66423 180.01C0.933261 179.901 1.23393 179.9 1.50337 180.008C1.77281 180.116 1.99015 180.324 2.10994 180.588L10.4469 200.892C10.5021 201.025 10.5305 201.168 10.5304 201.311C10.5304 201.455 10.502 201.598 10.4467 201.731C10.3915 201.864 10.3106 201.984 10.2086 202.086C10.1066 202.187 9.98563 202.267 9.85252 202.322C9.79769 202.369 9.7334 202.403 9.66407 202.422C9.59474 202.442 9.52202 202.446 9.45094 202.435Z" fill="#1A1A1A"/>
<path d="M128.995 263.411C128.811 263.411 128.631 263.363 128.47 263.273C128.31 263.183 128.176 263.054 128.08 262.897L116.048 244.521C115.962 244.394 115.902 244.251 115.873 244.101C115.843 243.951 115.844 243.796 115.876 243.646C115.907 243.496 115.969 243.354 116.056 243.228C116.144 243.103 116.256 242.996 116.385 242.915C116.51 242.826 116.652 242.763 116.802 242.731C116.953 242.699 117.108 242.698 117.258 242.728C117.409 242.758 117.551 242.819 117.677 242.906C117.804 242.993 117.911 243.105 117.992 243.236L130.007 261.628C130.096 261.753 130.159 261.895 130.191 262.045C130.223 262.195 130.224 262.35 130.194 262.501C130.164 262.651 130.103 262.794 130.016 262.92C129.928 263.047 129.816 263.153 129.686 263.235C129.484 263.373 129.239 263.435 128.995 263.411Z" fill="#1A1A1A"/>
<path d="M237.07 240.617C236.886 240.617 236.705 240.57 236.545 240.48C236.385 240.39 236.25 240.26 236.154 240.104L224.139 221.727C224.06 221.605 224.006 221.468 223.979 221.324C223.953 221.181 223.955 221.034 223.986 220.892C224.016 220.749 224.075 220.614 224.158 220.494C224.24 220.374 224.346 220.272 224.468 220.193C224.591 220.114 224.727 220.06 224.871 220.033C225.014 220.007 225.161 220.009 225.303 220.04C225.446 220.07 225.581 220.129 225.701 220.211C225.821 220.294 225.923 220.4 226.002 220.522L238.034 238.899C238.12 239.026 238.179 239.168 238.209 239.318C238.239 239.469 238.238 239.623 238.206 239.773C238.175 239.923 238.113 240.065 238.026 240.191C237.938 240.317 237.826 240.424 237.696 240.505C237.504 240.607 237.285 240.646 237.07 240.617Z" fill="#1A1A1A"/>
<path d="M161.315 320.292C161.152 320.289 160.993 320.251 160.846 320.182C160.699 320.113 160.569 320.013 160.463 319.891C160.361 319.78 160.283 319.649 160.233 319.507C160.183 319.364 160.163 319.213 160.174 319.063C160.184 318.913 160.225 318.766 160.294 318.632C160.363 318.499 160.459 318.38 160.576 318.284L177.298 304.02C177.409 303.918 177.539 303.84 177.681 303.79C177.824 303.74 177.975 303.72 178.125 303.73C178.275 303.741 178.422 303.782 178.556 303.851C178.69 303.92 178.808 304.016 178.904 304.132C179.008 304.242 179.088 304.372 179.14 304.515C179.191 304.658 179.212 304.809 179.201 304.96C179.19 305.111 179.149 305.259 179.078 305.393C179.008 305.527 178.91 305.644 178.792 305.739L162.053 319.987C161.966 320.096 161.852 320.18 161.723 320.234C161.594 320.287 161.453 320.307 161.315 320.292Z" fill="#1A1A1A"/>
<path d="M106.571 378.699C106.388 378.708 106.207 378.657 106.056 378.554C105.927 378.485 105.813 378.391 105.72 378.278C105.628 378.164 105.558 378.033 105.517 377.893C105.475 377.752 105.461 377.605 105.477 377.46C105.492 377.314 105.536 377.173 105.607 377.044L116.16 357.768C116.301 357.508 116.539 357.315 116.822 357.23C117.105 357.146 117.41 357.178 117.67 357.318C117.93 357.459 118.124 357.697 118.208 357.98C118.292 358.263 118.261 358.568 118.12 358.828L107.566 378.104C107.465 378.28 107.32 378.427 107.146 378.531C106.972 378.635 106.773 378.693 106.571 378.699Z" fill="#1A1A1A"/>
<path d="M32.0517 322.573C31.8675 322.577 31.6872 322.52 31.5377 322.413C31.4088 322.345 31.2949 322.253 31.2027 322.14C31.1106 322.028 31.0422 321.898 31.0017 321.758C30.9611 321.618 30.9493 321.472 30.9669 321.328C30.9845 321.184 31.0311 321.045 31.104 320.919L41.6416 301.643C41.712 301.515 41.807 301.402 41.9211 301.311C42.0352 301.22 42.1662 301.152 42.3065 301.112C42.4468 301.072 42.5937 301.059 42.7387 301.076C42.8837 301.093 43.024 301.138 43.1516 301.209C43.2824 301.276 43.3982 301.369 43.4921 301.483C43.5861 301.596 43.6561 301.727 43.6981 301.868C43.7401 302.009 43.7532 302.157 43.7366 302.303C43.72 302.449 43.674 302.591 43.6014 302.719L33.0477 321.995C32.9454 322.169 32.8001 322.313 32.6256 322.415C32.4511 322.516 32.2535 322.57 32.0517 322.573Z" fill="#1A1A1A"/>
<path d="M23.0083 326.236C22.8258 326.245 22.6452 326.194 22.4943 326.091C22.3649 326.022 22.2506 325.928 22.1583 325.814C22.066 325.7 21.9976 325.569 21.9571 325.428C21.9167 325.287 21.905 325.139 21.9227 324.994C21.9405 324.848 21.9874 324.708 22.0606 324.581L27.3133 314.943C27.3786 314.808 27.4707 314.687 27.584 314.589C27.6973 314.49 27.8295 314.416 27.9725 314.37C28.1155 314.324 28.2663 314.307 28.4158 314.321C28.5654 314.335 28.7104 314.38 28.8423 314.452C28.9742 314.524 29.09 314.622 29.1828 314.74C29.2757 314.858 29.3436 314.994 29.3823 315.139C29.4211 315.284 29.43 315.435 29.4085 315.584C29.3869 315.732 29.3354 315.875 29.257 316.003L24.0043 325.641C23.9017 325.816 23.7566 325.962 23.5825 326.066C23.4084 326.17 23.211 326.228 23.0083 326.236Z" fill="#1A1A1A"/>
<path d="M4.88921 207.174C4.66618 207.175 4.44812 207.108 4.26434 206.982C4.08056 206.855 3.93985 206.676 3.86114 206.467L0.407505 198.098C0.298715 197.829 0.298148 197.528 0.405924 197.259C0.5137 196.989 0.721472 196.772 0.98579 196.652C1.25714 196.549 1.55782 196.552 1.82648 196.663C2.09514 196.773 2.31152 196.982 2.43149 197.246L5.88513 205.632C5.98807 205.901 5.9838 206.199 5.87321 206.465C5.76262 206.731 5.55415 206.945 5.29079 207.061C5.17014 207.136 5.03097 207.175 4.88921 207.174Z" fill="#1A1A1A"/>
<path d="M625.644 656.998H552.829C552.535 656.998 552.253 656.881 552.045 656.673C551.837 656.465 551.72 656.183 551.72 655.89C551.72 655.596 551.837 655.314 552.045 655.106C552.253 654.898 552.535 654.781 552.829 654.781H625.644C625.938 654.781 626.22 654.898 626.428 655.106C626.636 655.314 626.753 655.596 626.753 655.89C626.753 656.183 626.636 656.465 626.428 656.673C626.22 656.881 625.938 656.998 625.644 656.998Z" fill="#1A1A1A"/>
<path d="M539.625 656.998H516.429C516.135 656.998 515.853 656.881 515.645 656.673C515.437 656.465 515.321 656.183 515.321 655.89C515.321 655.596 515.437 655.314 515.645 655.106C515.853 654.898 516.135 654.781 516.429 654.781H539.625C539.918 654.781 540.2 654.898 540.408 655.106C540.616 655.314 540.733 655.596 540.733 655.89C540.733 656.183 540.616 656.465 540.408 656.673C540.2 656.881 539.918 656.998 539.625 656.998Z" fill="#1A1A1A"/>
<path d="M440.883 114.021L435.486 117.073C435.486 117.073 436.209 122.648 440.706 122.872C445.204 123.097 440.883 114.021 440.883 114.021Z" fill="#254E96"/>
<path d="M443.309 107.083C443.309 107.083 436.209 120.576 440.481 130.246C444.754 139.916 449.043 142.486 458.376 140.655L460.111 129.507L469.556 113.958L458.055 109.139L443.309 107.083Z" fill="#0166A3"/>
<path d="M262.434 141.41L248.362 114.937L237.118 92.8818L237.23 97.5405L244.7 117.507L254.836 142.133C257.383 142.675 260.035 142.423 262.434 141.41Z" fill="#1A1A1A"/>
<path d="M290.561 171.176L277.71 148.687L271.012 138.84L260.313 127.804C259.58 129.295 259.211 130.939 259.236 132.6C259.261 134.262 259.68 135.894 260.458 137.362C261.084 138.735 261.797 140.065 262.594 141.346C260.928 141.921 259.205 142.314 257.454 142.519C256.61 142.425 255.773 142.274 254.948 142.069L252.073 135.499C252.073 135.499 248.78 138.406 249.872 141.78C250.319 143.402 251.001 144.949 251.896 146.374C251.896 146.374 250.723 150.566 253.984 152.478C253.984 152.478 252.378 156.847 255.944 159.176C255.944 159.176 257.229 163.771 260.763 164.236C264.297 164.702 264.136 166.887 264.136 166.887L275.381 194.275C275.381 194.275 276.489 184.428 281.999 178.211C287.509 171.995 290.561 171.176 290.561 171.176Z" fill="#254E96"/>
<path d="M618.4 605.708L620.681 610.848C620.681 610.848 617.565 607.105 614.144 609.097C612.485 609.904 611.057 611.119 609.995 612.628C608.933 614.136 608.272 615.89 608.072 617.724C607.702 621.659 605.277 633.61 605.277 633.61L602.642 648.067L600.281 653.802L588.378 654.058L584.619 652.452C584.128 651.798 583.839 651.015 583.787 650.199C583.736 649.382 583.925 648.569 584.33 647.858C586.997 649.015 589.872 649.616 592.779 649.625C594.69 649.496 596.549 648.947 598.225 648.019L600.506 638.525L602.417 625.674L604.248 614.945L608.843 607.876L613.919 605.017L618.4 605.708Z" fill="white"/>
<path d="M601.903 574.722L611.83 595.299C611.83 595.299 605.951 594.094 602.385 596.905C598.819 599.716 598.449 604.728 599.172 607.667C599.895 610.607 599.172 615.506 598.176 616.502C597.148 617.276 595.989 617.859 594.755 618.222C594.981 617.161 594.977 616.063 594.741 615.004C594.505 613.945 594.044 612.95 593.389 612.085C591.189 609.515 576.009 591.941 576.009 591.941C581.957 590.916 587.534 588.352 592.184 584.504C600.586 577.918 601.903 574.722 601.903 574.722Z" fill="#0166A3"/>
<path d="M453.124 645.673C451.721 646.5 450.242 647.189 448.706 647.729C446.654 648.306 444.523 648.555 442.393 648.468C436.19 648.339 430.007 647.711 423.904 646.589C415.776 645.255 407.68 643.714 399.68 641.915C399.568 641.77 399.937 641.914 399.857 641.995C399.777 642.075 399.568 642.107 399.375 641.995C399.231 642.014 399.093 642.065 398.97 642.143C398.847 642.221 398.742 642.324 398.663 642.446C398.584 642.568 398.532 642.706 398.511 642.85C398.489 642.994 398.499 643.14 398.54 643.279C398.699 643.856 399.065 644.354 399.568 644.677C404.226 648.581 410.523 649.834 416.515 650.926C425.139 652.785 433.902 653.929 442.714 654.347C445.58 654.504 448.453 654.244 451.244 653.576C452.517 653.333 453.722 652.816 454.776 652.062C455.829 651.308 456.707 650.334 457.348 649.208C457.708 648.455 457.894 647.632 457.894 646.798C457.894 645.964 457.708 645.141 457.348 644.389C456.513 643.023 454.232 645.047 453.124 645.673Z" fill="white"/>
<path d="M417.462 581.628L422.426 605.531L428.305 626.301C428.305 626.301 428.851 638.06 435.646 637.867C442.441 637.674 443.919 634.204 443.919 634.204C443.919 634.204 448.159 627.779 453.846 629.787C453.846 629.787 450.135 613.466 449.878 610.816C449.766 609.643 448.706 595.604 448.706 595.604C448.706 595.604 445.027 596.696 432.642 591.732C420.257 586.769 417.462 581.628 417.462 581.628Z" fill="#0166A3"/>
<path d="M290.561 171.625C290.561 171.625 301.629 190.548 313.05 200.845C324.471 211.141 332.792 216.539 353.851 214.081C374.91 211.623 399.792 185.038 399.792 185.038C399.792 185.038 417.366 165.296 432.546 160.943C441.813 158.275 451.433 157.034 461.075 157.264C461.075 157.264 467.95 181.89 474.664 193.905C481.379 205.921 514.116 244.649 514.116 244.649L532.75 264.745L569.519 284.342C569.519 284.342 564.7 301.257 559.222 314.236C553.745 327.215 545.44 340.966 538.34 347.054L545.616 373.045C545.616 373.045 550.435 388.867 551.126 397.493C551.817 406.119 549.183 417.107 549.183 417.107C549.183 417.107 555.062 427.949 559.479 447.242C563.897 466.534 559.479 479.224 559.479 479.224L577.679 519.302L601.871 574.705C601.871 574.705 598.256 582.351 585.807 588.6C573.358 594.848 559.527 591.17 559.527 591.17C559.527 591.17 540.042 587.315 534.163 590.431C528.284 593.547 519.706 601.274 513.024 599.989C506.341 598.704 481.78 592.648 481.78 592.648C476.225 593.226 470.703 594.083 465.235 595.218C456.416 597.049 437.108 594.656 425.526 587.684C413.944 580.713 415.229 570.223 415.229 570.223L401.816 485.296C401.816 485.296 395.022 425.749 394.09 408.095C393.158 390.441 392.628 345.239 392.628 345.239L396.05 306.815L390.428 308.421C390.428 308.421 373.882 317.802 345.209 317.063C328.406 316.759 311.861 312.871 296.681 305.659C296.681 305.659 279.22 285.997 275.542 242.802C271.863 199.608 274.996 191.881 279.22 182.693C283.445 173.505 290.561 171.625 290.561 171.625Z" fill="#0166A3"/>
<path d="M440.594 433.7C438.168 429.877 410.989 399.469 400.821 379.405C390.331 358.667 393.496 332.083 393.496 332.083C393.496 332.083 389.078 372.337 396.258 439.065C403.439 505.792 417.462 581.66 417.462 581.66L432.706 591.781C432.706 591.781 423.888 571.958 410.105 465.537C408.627 454.1 407.455 443.226 406.507 432.929C406.507 432.929 405.254 418.472 419.55 428.656C421.253 429.877 423.855 431.997 426.104 434.021C427.389 435.162 428.45 436.302 429.526 437.41C431.646 439.643 433.494 441.603 435.951 442.438C436.386 442.586 436.842 442.662 437.301 442.663C438.031 442.663 438.752 442.502 439.413 442.191C440.074 441.88 440.658 441.427 441.124 440.864C441.836 439.982 442.192 438.864 442.12 437.732C441.941 436.285 441.418 434.902 440.594 433.7Z" fill="white"/>
<path d="M462.681 156.622C456.646 155.76 450.505 156.011 444.561 157.361C433.526 159.561 419.309 165.922 411.728 173.794C404.146 181.665 378.653 203.463 378.653 203.463C378.653 203.463 352.437 219.639 335.747 214.017C319.058 208.394 305.853 196.106 301.195 187.544C296.537 178.982 281.084 154.935 281.084 154.935L273.469 142.438L260.314 128.318C260.314 128.318 257.004 129.924 262.08 139.161C266.07 143.777 269.554 148.807 272.474 154.164C276.891 162.501 289.645 193.134 309.982 209.776C314.414 213.411 319.404 216.308 324.76 218.354C324.76 218.354 331.442 221.438 331.073 225.116C330.848 227.429 328.535 229.196 324.455 232.827C317.724 238.818 318.833 245.324 325.081 244.858C336.486 243.975 352.213 231.879 360.26 225.036C363.473 222.321 380.854 206.579 396.034 199.013C413.205 190.451 419.309 175.737 432.803 168.38C446.296 161.023 466.359 162.983 466.359 162.983L462.681 156.622Z" fill="white"/>
<path d="M254.611 142.759C254.39 142.762 254.174 142.697 253.99 142.574C253.806 142.45 253.665 142.274 253.583 142.069L232.107 88.3203C232.017 88.0805 231.981 87.8241 232 87.5689C232.02 87.3138 232.094 87.0657 232.219 86.8422C232.347 86.6201 232.523 86.43 232.734 86.2853C232.945 86.1407 233.187 86.0453 233.44 86.0069C233.794 85.9387 234.162 85.9922 234.482 86.1583C234.803 86.3244 235.058 86.5936 235.207 86.9226L263.398 140.928C263.466 141.055 263.508 141.194 263.521 141.338C263.533 141.481 263.517 141.626 263.471 141.763C263.426 141.899 263.354 142.025 263.258 142.133C263.163 142.241 263.047 142.328 262.916 142.39C262.791 142.461 262.652 142.505 262.509 142.52C262.366 142.535 262.221 142.521 262.083 142.477C261.946 142.433 261.819 142.361 261.711 142.266C261.603 142.171 261.515 142.054 261.454 141.924L237.745 96.4803L255.607 141.217C255.713 141.49 255.706 141.793 255.588 142.061C255.471 142.329 255.253 142.539 254.981 142.647C254.874 142.724 254.744 142.764 254.611 142.759Z" fill="#1A1A1A"/>
<path d="M257.374 143.755C255.939 143.749 254.508 143.603 253.101 143.321C252.816 143.263 252.565 143.096 252.4 142.856C252.235 142.617 252.17 142.323 252.217 142.036C252.276 141.751 252.442 141.5 252.682 141.335C252.922 141.17 253.216 141.105 253.503 141.152C259.607 142.245 261.743 140.59 261.775 140.558C261.883 140.449 262.012 140.365 262.155 140.311C262.298 140.257 262.452 140.234 262.604 140.245C262.757 140.255 262.905 140.299 263.039 140.372C263.174 140.446 263.29 140.547 263.382 140.67C263.486 140.78 263.566 140.911 263.617 141.053C263.668 141.196 263.689 141.347 263.679 141.498C263.668 141.649 263.626 141.797 263.556 141.931C263.485 142.065 263.388 142.182 263.269 142.277C261.534 143.436 259.451 143.958 257.374 143.755Z" fill="#1A1A1A"/>
<path d="M260.346 138.567C260.139 138.569 259.935 138.513 259.759 138.405C259.583 138.297 259.441 138.141 259.35 137.956C256.265 131.434 259.205 127.402 259.35 127.258C259.429 127.124 259.535 127.008 259.662 126.918C259.789 126.828 259.933 126.765 260.086 126.734C260.238 126.704 260.395 126.705 260.547 126.739C260.699 126.773 260.842 126.839 260.967 126.932C261.091 127.025 261.195 127.143 261.271 127.279C261.347 127.415 261.394 127.565 261.408 127.72C261.422 127.875 261.404 128.031 261.353 128.179C261.303 128.326 261.222 128.461 261.117 128.575C261.004 128.719 258.868 131.788 261.374 136.992C261.501 137.257 261.518 137.56 261.422 137.837C261.326 138.114 261.123 138.342 260.86 138.47C260.697 138.537 260.522 138.57 260.346 138.567Z" fill="#1A1A1A"/>
<path d="M678.221 199.045C675.249 186.114 670.028 175.223 663.555 168.316C643.411 146.888 611.525 147.771 588.265 148.429C581.746 148.801 575.208 148.715 568.7 148.173H568.266C548.075 145.49 517.57 141.442 505.619 109.716C500.8 96.8656 493.266 88.031 483.275 83.5172C475.375 79.9193 466.429 79.3477 458.135 81.9109C450.634 84.738 440.192 93.894 442.249 107.387C442.276 107.553 442.339 107.711 442.433 107.849C442.528 107.988 442.651 108.104 442.795 108.19C444.621 109.559 445.838 111.589 446.184 113.845C446.542 115.523 446.688 117.239 446.618 118.953C446.618 121.025 446.618 122.744 448.321 123.772C448.698 123.977 449.12 124.085 449.549 124.085C449.979 124.085 450.401 123.977 450.778 123.772C451.581 123.37 453.027 122.166 453.429 118.744C453.486 118.072 453.689 117.42 454.025 116.834C454.361 116.249 454.821 115.744 455.372 115.355C455.757 115.095 456.191 114.918 456.647 114.835C457.103 114.752 457.572 114.765 458.023 114.873C458.348 114.979 458.649 115.149 458.908 115.372C459.167 115.596 459.38 115.868 459.533 116.174C460.276 117.855 460.351 119.757 459.742 121.491C459.363 122.696 458.709 123.796 457.83 124.704C456.595 126.006 455.901 127.728 455.886 129.523C455.742 140.109 458.135 178.565 494.824 228.891C516.478 258.593 540.653 278.415 566.756 287.86C577.771 291.885 589.405 293.951 601.132 293.964C602.931 293.964 604.698 293.964 606.497 293.82C620.619 292.934 634.438 289.34 647.202 283.234C668.486 273.483 676.341 254.143 679.217 239.589C681.636 226.147 681.297 212.353 678.221 199.045Z" fill="#1A1A1A"/>
<path d="M628.921 266.206C617.789 264.343 604.826 263.829 604.296 270.431C603.766 277.033 619.283 278.897 622.271 280.326C627.235 282.72 623.877 287.201 621.677 289.37C630.169 287.527 638.421 284.713 646.27 280.985C653.649 277.641 660.117 272.573 665.128 266.206C666.526 264.182 668.068 261.869 669.353 259.958C669.546 259.636 669.771 259.299 669.947 258.93C666.092 263.235 655.394 270.688 628.921 266.206Z" fill="white"/>
<path d="M515.449 134.792C512.943 135.595 494.197 138.004 491.916 143.129C490.438 146.341 494.599 149.12 500.366 148.285C506.132 147.45 508.092 147.177 509.554 149.49C511.016 151.803 515.08 153.426 520.702 151.803C526.324 150.181 536.251 143.771 546.693 146.55L546.468 146.47C536.219 143.836 525.73 139.45 517.168 131.338C517.794 132.254 518.341 133.828 515.449 134.792Z" fill="white"/>
<path d="M531.352 489.729L494.406 454.759C492.991 453.418 492.166 451.571 492.111 449.622C492.057 447.674 492.779 445.783 494.117 444.366L494.23 444.206C495.57 442.79 497.418 441.965 499.366 441.911C501.315 441.856 503.205 442.578 504.623 443.916L541.569 478.886C542.986 480.225 543.814 482.071 543.872 484.02C543.929 485.969 543.21 487.86 541.874 489.28L541.761 489.424C540.42 490.843 538.571 491.671 536.62 491.728C534.669 491.786 532.774 491.067 531.352 489.729Z" fill="white"/>
<path d="M532.091 518.58C533.697 516.122 537.6 514.901 544.219 519.126C550.837 523.35 551.576 525.021 554.885 524.459C558.194 523.897 561.133 522.146 567.928 526.483C577.566 532.667 581.903 537.326 578.964 540.458C576.024 543.591 573.342 540.747 567.382 543.205C563.334 544.811 561.503 547.622 556.138 544.811C550.772 542 534.822 529.712 533.167 527.35C530.613 523.736 530.918 520.491 532.091 518.58Z" fill="white"/>
<path d="M572.941 557.02C576.314 556.586 578.756 553.951 578.386 551.14C578.017 548.329 575.013 546.322 571.656 546.804C568.298 547.285 565.857 549.855 566.21 552.682C566.563 555.509 569.583 557.437 572.941 557.02Z" fill="white"/>
<path d="M437.799 352.644C439.308 360.354 440.851 368.081 442.537 375.759C444.224 383.437 445.959 391.132 447.79 398.778C449.621 406.424 451.501 414.038 453.525 421.636L455.035 427.339L456.641 433.041C457.717 436.816 458.745 440.607 459.854 444.286C460.962 447.964 462.054 451.819 463.195 455.53C464.335 459.241 465.508 463.032 466.761 466.774C468.014 470.517 469.186 474.244 470.439 478.019C471.066 479.898 471.725 481.73 472.383 483.561L473.347 486.356L474.327 489.119L476.351 494.628L478.455 500.155C479.114 501.986 479.853 503.817 480.575 505.632L481.652 508.346L482.198 509.712L482.744 511.062L484.993 516.507C485.732 518.338 486.599 520.106 487.306 521.905L488.447 524.635C488.816 525.551 489.25 526.434 489.667 527.318L492.045 532.715C492.165 532.982 492.175 533.285 492.072 533.559C491.97 533.832 491.764 534.054 491.499 534.177C491.248 534.29 490.964 534.303 490.704 534.214C490.444 534.124 490.228 533.939 490.101 533.695C488.19 530.241 486.214 526.788 484.447 523.254L483.081 520.619C482.648 519.736 482.166 518.852 481.764 517.969L479.178 512.604L478.551 511.238L477.941 509.873L476.72 507.158C475.917 505.359 475.114 503.56 474.295 501.712L471.982 496.235L469.781 490.725C466.825 483.368 464.143 475.915 461.572 468.413C460.287 464.654 459.115 460.879 457.894 457.169C456.673 453.458 455.549 449.603 454.472 445.812C450.071 430.595 446.285 415.227 443.116 399.71C441.509 391.951 440.112 384.192 438.827 376.369C438.2 372.466 437.606 368.547 437.06 364.643C436.513 360.74 436.032 356.82 435.662 352.837C435.647 352.692 435.66 352.545 435.702 352.406C435.744 352.267 435.813 352.137 435.906 352.024C435.999 351.912 436.113 351.82 436.243 351.752C436.372 351.685 436.513 351.644 436.658 351.632C436.931 351.657 437.189 351.768 437.395 351.95C437.6 352.132 437.741 352.376 437.799 352.644Z" fill="#1A1A1A"/>
<path d="M420.032 224.49C427.1 222.884 429.67 226.835 429.67 233.485C429.67 241.389 429.044 253.902 420.739 260.038C412.434 266.175 380.581 275.588 372.95 271.54C366.525 268.166 368.533 261.5 374.171 258.561C379.809 255.621 398.427 254.159 404.306 246.802C410.185 239.445 407.535 227.43 420.032 224.49Z" fill="white"/>
<path d="M649.29 180.01C649.031 180.011 648.781 179.92 648.583 179.753C637.126 170.574 623.084 165.21 608.425 164.413C601.716 163.905 594.97 164.326 588.377 165.665C588.096 165.733 587.8 165.687 587.553 165.536C587.306 165.386 587.129 165.143 587.06 164.862C586.992 164.579 587.038 164.28 587.188 164.031C587.339 163.781 587.581 163.601 587.863 163.529C594.649 162.167 601.587 161.735 608.489 162.244C623.632 163.061 638.138 168.606 649.965 178.099C650.088 178.189 650.19 178.305 650.265 178.437C650.34 178.57 650.385 178.717 650.399 178.869C650.413 179.021 650.394 179.174 650.344 179.318C650.294 179.462 650.214 179.594 650.109 179.705C649.87 179.88 649.586 179.986 649.29 180.01Z" fill="white"/>
<path d="M591.317 177.649C572.378 177.649 562.306 170.597 561.792 170.227C561.576 170.049 561.437 169.795 561.401 169.517C561.365 169.239 561.435 168.958 561.598 168.73C561.761 168.502 562.004 168.345 562.278 168.289C562.553 168.233 562.838 168.282 563.077 168.428C563.27 168.573 577.534 178.388 603.444 174.484C603.733 174.447 604.025 174.523 604.259 174.697C604.493 174.871 604.65 175.129 604.697 175.416C604.735 175.701 604.66 175.988 604.489 176.219C604.318 176.45 604.065 176.605 603.782 176.653C599.661 177.322 595.492 177.655 591.317 177.649Z" fill="white"/>
<path d="M622.705 612.293C622.134 610.4 621.359 608.574 620.392 606.848L620.28 606.511C620.28 606.511 620.167 606.367 620.023 606.142C617.163 600.777 613.035 594.528 612.569 593.757L602.931 574.239C602.417 573.099 577.712 517.583 563.479 485.424C562.676 483.545 561.712 481.489 560.716 479.208C562.192 474.192 562.805 468.961 562.532 463.739C562.47 460.983 562.261 458.232 561.905 455.498C561.905 455.322 561.905 455.161 561.905 454.985C561.916 454.899 561.916 454.813 561.905 454.727C559.954 441.684 556.129 428.992 550.548 417.043C555.833 402.891 550.388 384.916 544.621 365.832C542.822 359.841 540.942 353.704 539.432 347.681C547.464 340.034 555.094 327.681 561.921 310.943C564.96 303.435 567.588 295.767 569.792 287.973C569.862 287.688 569.819 287.386 569.673 287.132C569.526 286.878 569.287 286.69 569.005 286.607C568.724 286.538 568.427 286.579 568.176 286.722C567.925 286.866 567.738 287.101 567.656 287.378C567.543 287.796 557.134 326.975 538.87 345.207C538.388 343.103 537.955 341.047 537.585 338.991C536.702 334.027 535.979 329.063 535.368 324.212V323.939C535.368 323.65 533.762 293.418 537.762 282.832C538.072 281.709 538.613 280.663 539.348 279.758C540.083 278.854 540.998 278.112 542.035 277.58C542.759 277.318 543.529 277.204 544.298 277.242C545.067 277.281 545.822 277.472 546.516 277.805C546.772 277.928 547.064 277.95 547.336 277.867C547.607 277.783 547.836 277.6 547.978 277.355C548.125 277.117 548.173 276.832 548.113 276.559C548.053 276.286 547.89 276.048 547.657 275.893L532.879 266.143C532.798 266.143 532.766 266.062 532.686 266.062C532.605 266.062 532.686 266.062 532.686 266.062C532.596 266.044 532.503 266.044 532.413 266.062H532.204C532.186 266.054 532.167 266.049 532.148 266.049C532.128 266.049 532.109 266.054 532.091 266.062H531.947C531.947 266.062 531.947 266.062 531.867 266.062L531.674 266.175C531.629 266.223 531.591 266.277 531.561 266.335C531.517 266.371 531.488 266.423 531.481 266.48C531.464 266.565 531.464 266.652 531.481 266.737C530.366 290.914 531.792 315.143 535.738 339.022C537.598 348.194 539.979 357.253 542.87 366.154C547.03 379.824 550.998 392.947 550.902 404.272L550.741 405.156C550.663 405.385 550.535 405.593 550.365 405.766C550.195 405.938 549.989 406.07 549.761 406.151C549.197 406.281 548.606 406.242 548.064 406.04C547.521 405.837 547.05 405.479 546.709 405.011C545.522 403.396 544.535 401.643 543.77 399.79L541.89 395.389C528.574 362.186 520.413 333.368 520.317 332.998C520.235 332.717 520.046 332.48 519.791 332.336C519.536 332.192 519.235 332.153 518.952 332.227C518.812 332.265 518.681 332.329 518.566 332.418C518.452 332.506 518.356 332.616 518.284 332.741C518.212 332.867 518.166 333.005 518.149 333.149C518.131 333.292 518.142 333.438 518.181 333.577C518.293 333.914 526.212 362.105 539.272 394.859C539.282 394.939 539.309 395.016 539.352 395.084C539.432 395.229 539.979 396.69 540.782 398.618C543.288 404.722 545.938 410.971 548.813 417.219C553.215 427.034 558.452 440.897 560.235 455.081C560.235 455.225 560.235 455.45 560.235 455.707C560.235 457.394 559.978 461.185 557.022 461.619C554.885 461.956 552.861 459.643 551.496 457.394C538.115 428.143 521.57 392.546 521.361 392.032C521.235 391.765 521.01 391.559 520.734 391.457C520.457 391.355 520.152 391.365 519.883 391.486C519.618 391.608 519.412 391.83 519.309 392.104C519.207 392.378 519.217 392.681 519.337 392.947C519.546 393.429 534.774 426.151 547.785 454.599C547.784 454.742 547.811 454.884 547.866 455.017C548.143 455.74 548.459 456.448 548.813 457.137L558.628 478.47C559.881 481.211 560.995 483.711 561.969 485.971C575.511 516.588 598.562 568.312 601.196 574.32C599.253 577.147 588.185 591.556 568.555 590.704C564.877 590.56 560.845 590.013 556.942 589.499C552.606 588.82 548.235 588.391 543.85 588.215C543.68 588.129 543.494 588.08 543.304 588.07H543.047C536.493 588.07 533.2 577.982 529.329 566.368C528.557 564.055 527.722 561.661 526.935 559.284C522.309 546.192 505.956 503.431 505.812 503.062C505.74 502.882 505.625 502.724 505.476 502.601C505.327 502.477 505.15 502.393 504.96 502.355C504.772 502.326 504.579 502.345 504.399 502.409C504.22 502.474 504.059 502.582 503.932 502.725C502.936 503.897 503.739 507.206 513.458 534.852C515.145 539.671 516.863 544.49 518.421 549.068C519.112 551.14 519.771 553.084 520.429 554.915C526.244 571.766 529.441 581.018 529.843 586.207C530.148 589.837 529.039 591.604 528.493 592.198L528.124 592.536C520.542 599.138 516.879 600.358 500.479 595.989C495.467 594.656 491.467 593.564 487.981 592.857L486.905 592.536C484.624 591.604 478.873 588.118 475.404 575.798C470.408 558.449 464.561 533.229 459.34 510.949C456.658 499.416 454.119 488.461 452.208 480.847C451.18 476.735 450.377 473.747 449.75 471.69C448.835 468.751 448.321 467.466 447.068 467.691C446.888 467.721 446.717 467.788 446.565 467.887C446.413 467.987 446.284 468.117 446.184 468.269C444.963 470.068 446.987 479.883 454.489 512.749C456.4 521.166 458.392 529.888 460.079 537.711C462.023 546.691 464.239 555.108 466.151 562.529C470.038 577.42 472.946 588.343 471.099 592.231C470.979 592.522 470.796 592.783 470.563 592.995C470.329 593.206 470.051 593.361 469.749 593.451C459.469 596.873 438.024 593.451 426.49 586.544C421.591 583.588 418.7 580.247 418.137 576.794C407.664 519.881 395.022 437.202 394.219 366.62C394.106 357.319 394.219 349.207 394.476 342.187C396.573 342.539 398.694 342.732 400.821 342.765C404.752 342.932 408.629 341.803 411.857 339.552C416.997 335.697 418.282 329.079 418.844 323.087C419.76 313.353 420.643 308.63 431.888 298.992C444.899 287.86 448.144 278.768 449.557 272.086C450.329 268.327 449.557 263.299 444.851 261.564C443.173 260.938 441.325 260.939 439.649 261.568C437.972 262.197 436.579 263.411 435.727 264.986C434.265 267.717 432.514 270.72 432.514 270.753C432.455 270.851 432.401 270.953 432.353 271.058C428.768 277.453 424.278 283.296 419.021 288.406C406.578 300.771 390.823 309.273 373.658 312.887C355.876 316.592 337.497 316.328 319.829 312.116C312.337 310.418 305.054 307.903 298.111 304.614C293.983 299.506 289.068 291.266 284.843 278.303C285.453 278.56 286.128 278.769 286.754 279.026C291.98 280.985 297.233 282.779 302.513 284.407C307.814 286.013 313.179 287.443 318.576 288.631C324.005 289.824 329.505 290.671 335.041 291.17L339.202 291.426C340.599 291.426 341.997 291.426 343.378 291.426C344.085 291.426 344.776 291.426 345.482 291.426L347.539 291.346L351.619 291.137C357.059 290.805 362.461 290.27 367.827 289.531C373.192 288.792 378.525 287.925 383.89 286.736C386.541 286.19 389.175 285.563 391.793 284.905C393.11 284.567 394.396 284.23 395.729 283.828C397.062 283.427 398.331 283.09 399.664 282.656C399.812 282.613 399.95 282.54 400.068 282.441C400.187 282.343 400.283 282.22 400.351 282.082C400.419 281.944 400.458 281.793 400.465 281.639C400.471 281.485 400.446 281.331 400.39 281.188C400.334 281.044 400.248 280.913 400.139 280.805C400.03 280.696 399.899 280.611 399.755 280.556C399.611 280.501 399.458 280.476 399.304 280.484C399.15 280.491 398.999 280.531 398.861 280.6C398.267 280.809 397.64 281.065 397.014 281.258L395.102 281.885C393.817 282.249 392.532 282.602 391.247 282.945C388.677 283.604 386.059 284.198 383.424 284.68C378.169 285.627 372.865 286.286 367.538 286.656C364.887 286.848 362.204 286.913 359.506 286.993C356.807 287.073 354.189 286.993 351.474 286.88C350.141 286.8 348.824 286.768 347.506 286.656C346.189 286.543 344.856 286.479 343.571 286.334C340.975 286.069 338.396 285.661 335.844 285.114C334.559 284.857 333.306 284.567 332.021 284.23C330.736 283.893 329.483 283.572 328.23 283.17C326.977 282.768 325.74 282.399 324.487 281.981C323.235 281.563 322.03 281.146 320.809 280.664C315.901 278.792 311.101 276.647 306.432 274.239C304.119 273.034 301.806 271.813 299.525 270.496C297.244 269.179 295.011 267.845 292.794 266.416C290.578 264.986 288.425 263.54 286.289 262.03C285.228 261.259 284.2 260.536 283.172 259.717L281.662 258.545L280.923 257.95L280.554 257.661L280.377 257.516C280.377 257.516 280.265 257.404 280.233 257.404C279.938 256.923 279.604 256.467 279.237 256.039C278.723 253.244 278.273 250.304 277.839 247.22C276.924 240.537 276.233 232.409 275.815 224.169C278.064 226.851 280.409 229.47 282.803 232.008C285.453 234.803 288.2 237.485 291.027 240.04L292.104 241.035L293.164 241.983C293.903 242.61 294.593 243.284 295.332 243.895C296.81 245.148 298.24 246.368 299.75 247.573C301.26 248.778 302.754 249.934 304.264 251.107C305.035 251.701 305.87 252.248 306.593 252.713C307.316 253.179 308.199 253.854 308.906 254.32C315.126 258.685 321.618 262.65 328.343 266.191C328.586 266.315 328.866 266.347 329.131 266.282C329.396 266.217 329.63 266.06 329.788 265.837C329.872 265.71 329.93 265.567 329.958 265.417C329.987 265.267 329.985 265.113 329.954 264.964C329.923 264.815 329.862 264.673 329.776 264.547C329.689 264.421 329.579 264.314 329.451 264.231C323.23 260.13 317.275 255.639 311.621 250.786C310.93 250.192 310.223 249.565 309.532 248.939C308.842 248.312 308.135 247.734 307.46 247.075C306.111 245.822 304.746 244.537 303.428 243.252C302.111 241.967 300.81 240.634 299.525 239.317C298.898 238.658 298.272 237.951 297.613 237.293L296.666 236.264L295.734 235.237C293.276 232.474 290.915 229.646 288.65 226.739C286.385 223.831 284.232 220.892 282.225 217.84C280.217 214.788 278.257 211.703 276.458 208.587C276.201 208.137 275.944 207.704 275.719 207.222C275.841 202.814 276.26 198.418 276.972 194.066C279.606 178.613 287.365 173.81 291.043 172.364C302.593 191.158 316.006 209.31 334.415 214.129C337.892 215.035 341.471 215.489 345.065 215.478C354.703 215.478 364.742 212.266 375.505 205.744C387.938 198.242 398.701 187.946 407.375 179.673C411.278 175.962 414.619 172.766 417.382 170.565C418.678 169.498 420.041 168.516 421.462 167.625H421.752H422.346H423.005C423.454 167.625 423.888 167.625 424.29 167.625C425.173 167.625 426.025 167.802 426.908 167.947C428.623 168.266 430.299 168.772 431.904 169.457C435.108 170.842 437.986 172.883 440.353 175.448C442.703 178.048 444.627 181.003 446.056 184.203C446.796 185.812 447.424 187.471 447.935 189.167C448.481 190.885 448.963 192.62 449.541 194.387C451.485 201.407 453.22 208.571 455.131 215.671C457.043 222.771 459.067 229.936 461.557 236.988C462.81 240.522 464.175 244.007 465.749 247.461C467.316 250.963 469.119 254.355 471.147 257.613C473.268 261.008 475.84 264.099 478.793 266.801C480.373 268.201 482.103 269.424 483.949 270.447C485.865 271.501 487.92 272.28 490.053 272.761C490.6 272.873 491.146 272.986 491.66 273.05C492.174 273.114 492.704 273.194 493.266 273.243C494.326 273.339 495.403 273.387 496.479 273.387C498.651 273.351 500.811 273.038 502.904 272.455C507.057 271.3 510.899 269.231 514.149 266.399C517.255 263.722 519.96 260.611 522.18 257.163C522.118 257.12 522.058 257.072 522.004 257.019C519.602 255.264 517.442 253.201 515.578 250.882C515.289 251.396 515 251.91 514.695 252.392C513.043 255.215 510.987 257.78 508.591 260.006C506.366 262.127 503.692 263.719 500.768 264.665C499.325 265.126 497.83 265.401 496.318 265.484C495.547 265.484 494.776 265.484 494.005 265.484C493.603 265.484 493.234 265.404 492.832 265.372C492.431 265.339 492.093 265.259 491.724 265.227C488.71 264.613 485.902 263.242 483.564 261.243C480.986 259.083 478.72 256.574 476.833 253.79C474.838 250.898 473.056 247.864 471.5 244.714C469.894 241.501 468.448 238.289 467.131 234.899C464.448 228.201 462.167 221.261 459.967 214.274C457.766 207.286 455.774 200.218 453.541 193.166C452.947 191.4 452.401 189.632 451.742 187.882C451.088 186.086 450.337 184.327 449.493 182.613C447.8 179.151 445.554 175.987 442.843 173.248C440.1 170.505 436.818 168.361 433.205 166.951C431.403 166.259 429.527 165.779 427.615 165.521C426.924 165.409 426.249 165.377 425.559 165.296C426.249 164.927 426.924 164.574 427.615 164.236H428.065C428.611 164.317 429.189 164.429 429.751 164.541C430.889 164.763 432.007 165.08 433.092 165.489C435.266 166.276 437.341 167.311 439.277 168.573C443.122 171.157 446.401 174.496 448.915 178.388C449.252 178.87 449.541 179.352 449.831 179.866L450.28 180.605L450.714 181.376C451.308 182.372 451.79 183.4 452.32 184.46C453.268 186.596 454.119 188.797 454.923 191.046C456.529 195.528 457.943 200.154 459.485 204.796C461.027 209.439 462.697 214.097 464.737 218.691C465.769 221.015 466.922 223.283 468.191 225.486C469.521 227.757 471.047 229.907 472.753 231.911C474.557 234.039 476.649 235.905 478.97 237.453C480.172 238.269 481.453 238.964 482.793 239.525C483.451 239.815 484.158 240.071 484.849 240.296C485.54 240.521 486.246 240.73 486.985 240.875C487.698 241.059 488.422 241.194 489.154 241.276C489.873 241.38 490.597 241.445 491.322 241.469C492.758 241.536 494.197 241.498 495.627 241.357C498.357 241.053 501.048 240.472 503.659 239.622L503.916 239.525C504.454 239.294 504.953 238.98 505.394 238.594C503.207 236.328 501.214 233.883 499.434 231.285C497.821 231.866 496.16 232.306 494.471 232.602C493.488 232.759 492.495 232.845 491.499 232.859C491.017 232.859 490.503 232.859 490.021 232.859C489.541 232.831 489.064 232.772 488.592 232.682C488.11 232.682 487.644 232.49 487.194 232.377C486.744 232.265 486.278 232.12 485.829 231.943C484.917 231.612 484.036 231.204 483.194 230.723C481.425 229.669 479.804 228.383 478.375 226.9C475.331 223.562 472.768 219.815 470.761 215.767C468.597 211.535 466.656 207.192 464.946 202.756C463.147 198.307 461.428 193.745 459.517 189.183C458.553 186.902 457.525 184.669 456.304 182.42C455.71 181.311 455.051 180.187 454.393 179.207L453.879 178.404L453.316 177.633L452.224 176.027C449.2 171.917 445.375 168.464 440.98 165.875C438.777 164.609 436.431 163.611 433.992 162.903C433.221 162.678 432.482 162.501 431.711 162.357C441.083 158.62 451.117 156.827 461.203 157.088C461.478 157.078 461.739 156.967 461.936 156.775C462.133 156.584 462.252 156.327 462.27 156.053C462.288 155.779 462.204 155.508 462.033 155.293C461.863 155.077 461.619 154.933 461.348 154.887C460.32 154.807 435.502 153.377 416.467 168.75C413.624 171.031 410.25 174.26 406.315 178.002C397.721 186.211 387.039 196.427 374.846 203.784C360.55 212.426 347.683 215.029 335.443 211.912C314.046 206.354 299.332 181.392 286.353 159.401C284.923 156.976 283.413 154.453 281.984 152.012C279.301 147.578 276.474 143.241 273.598 139.048L273.502 138.936L262.017 126.648C261.817 126.434 261.54 126.31 261.248 126.301C260.955 126.292 260.672 126.399 260.459 126.599C260.246 126.799 260.121 127.077 260.112 127.369C260.103 127.661 260.21 127.945 260.41 128.158L271.848 140.366C274.675 144.478 277.438 148.783 280.072 153.217C281.518 155.61 283.028 158.148 284.457 160.574C286.369 163.786 288.345 167.192 290.369 170.501C286.546 172.107 279.462 176.749 276.153 189.777C275.189 186.902 272.94 179.77 273.245 175.947C273.245 175.063 273.39 174.035 273.502 173.007C273.904 169.184 274.337 164.847 271.141 163.369C268.791 162.684 266.336 162.434 263.896 162.63H263.752C262.222 162.777 260.684 162.446 259.35 161.682C258.944 161.341 258.613 160.919 258.378 160.443C258.143 159.968 258.009 159.449 257.985 158.919C257.987 158.743 257.944 158.569 257.859 158.414C257.775 158.26 257.652 158.129 257.503 158.036C256.618 157.528 255.96 156.702 255.661 155.727C255.363 154.751 255.447 153.699 255.897 152.783C255.96 152.644 255.993 152.494 255.993 152.341C255.993 152.189 255.96 152.038 255.897 151.899C255.844 151.755 255.761 151.625 255.653 151.516C255.545 151.408 255.414 151.325 255.27 151.273C255.27 151.273 252.443 150.164 253.439 145.875C253.48 145.701 253.478 145.519 253.433 145.346C253.388 145.173 253.302 145.013 253.182 144.88C252.632 144.271 252.209 143.559 251.938 142.785C251.667 142.01 251.554 141.19 251.604 140.371C251.655 139.553 251.869 138.752 252.234 138.017C252.599 137.283 253.107 136.629 253.728 136.093C253.846 135.995 253.941 135.872 254.006 135.733C254.071 135.595 254.105 135.443 254.105 135.29C254.105 135.136 254.071 134.985 254.006 134.846C253.941 134.707 253.846 134.585 253.728 134.487C253.628 134.371 253.505 134.278 253.367 134.215C253.228 134.151 253.077 134.118 252.925 134.118C252.772 134.118 252.622 134.151 252.483 134.215C252.344 134.278 252.221 134.371 252.122 134.487C250.502 135.881 249.489 137.852 249.297 139.981C249.105 142.11 249.749 144.23 251.094 145.891C250.759 147.143 250.8 148.465 251.211 149.693C251.623 150.921 252.386 152.001 253.407 152.799C253.032 154.028 253.05 155.344 253.459 156.562C253.868 157.78 254.647 158.84 255.688 159.594C255.776 160.392 256.033 161.162 256.44 161.854C256.847 162.546 257.395 163.144 258.049 163.61C259.571 164.487 261.304 164.931 263.061 164.895L268.892 179.159C270.498 182.918 271.992 186.661 273.165 189.456C273.759 190.853 274.225 192.026 274.594 192.845C274.751 193.151 274.886 193.467 274.996 193.793C274.996 193.793 274.996 193.905 275.076 193.937C272.619 208.395 273.791 231.847 275.96 247.541C280.474 280.519 289.71 297.611 296.65 306.14C296.75 306.25 296.863 306.348 296.987 306.43C304.102 309.89 311.603 312.494 319.331 314.188C328.979 316.474 338.86 317.633 348.775 317.642C357.316 317.651 365.833 316.762 374.188 314.991C381.507 313.448 388.615 311.032 395.359 307.795C393.223 316.293 392.388 339.633 392.339 340.693C392.346 340.856 392.373 341.018 392.42 341.175C392.163 348.371 392.05 356.756 392.163 366.362C392.966 437.041 405.656 519.977 416.129 577.035C416.21 577.436 416.322 577.854 416.419 578.207C416.386 578.382 416.386 578.562 416.419 578.737C418.615 592.482 421.788 606.052 425.912 619.345C423.583 616.133 420.788 613.322 418.105 612.92C417.34 612.815 416.56 612.907 415.84 613.188C415.12 613.47 414.484 613.93 413.993 614.526C413.454 615.048 413.061 615.703 412.855 616.425C412.649 617.147 412.637 617.911 412.82 618.639C413.366 620.92 415.824 623.12 418.732 624.968C417.03 624.698 415.287 624.991 413.768 625.803C413.183 626.178 412.704 626.697 412.378 627.311C412.052 627.924 411.889 628.611 411.905 629.305V629.851H411.391C403.487 630.51 400.018 633.498 398.54 635.923C397.986 636.731 397.611 637.647 397.439 638.611C397.268 639.575 397.303 640.564 397.544 641.513C397.824 643.16 398.561 644.694 399.672 645.941C400.783 647.188 402.222 648.097 403.825 648.565C412.547 651.039 430.265 655.296 441.445 655.473H442.473C452.32 655.473 458.023 652.87 459.34 650.22C459.842 649.033 460.1 647.758 460.1 646.469C460.1 645.181 459.842 643.905 459.34 642.718C459.34 642.718 459.34 642.718 459.34 642.605C459.34 642.493 459.34 642.605 459.34 642.605C459.194 641.294 458.909 640.001 458.489 638.75C457.686 635.65 456.32 630.429 454.409 621.386C452.601 613.14 451.382 604.777 450.762 596.359C458.376 597.355 465.685 597.162 470.729 595.475C476.165 593.654 482.013 593.447 487.564 594.881H487.901C491.322 595.572 495.29 596.648 500.254 597.965C505.105 599.495 510.129 600.407 515.209 600.68C520.654 600.68 524.59 598.736 529.923 594.078C529.923 594.078 529.923 594.078 530.019 594.078C536.091 588.889 546.757 590.335 557.054 591.717C561.022 592.279 565.086 592.825 568.877 592.969C571.373 593.079 573.873 592.955 576.346 592.6L592.153 610.912C592.883 611.788 593.479 612.768 593.92 613.82C590.948 611.507 588.522 610.511 586.563 610.768C585.938 610.859 585.343 611.092 584.823 611.449C584.302 611.805 583.87 612.275 583.559 612.824C583.129 613.445 582.858 614.162 582.768 614.912C582.679 615.663 582.774 616.424 583.045 617.129C584.09 619.097 585.797 620.633 587.864 621.466C586.576 621.425 585.305 621.772 584.217 622.462C583.685 622.847 583.254 623.354 582.961 623.942C582.667 624.529 582.52 625.179 582.531 625.835C582.465 626.478 582.565 627.127 582.821 627.72C583.077 628.313 583.48 628.831 583.992 629.224C585.089 629.918 586.376 630.25 587.671 630.173C589.92 630.085 592.147 629.691 594.289 629C594.112 633.674 593.855 638.333 593.663 641.321C591.921 641.151 590.165 641.377 588.522 641.979C586.651 642.966 585.201 644.599 584.442 646.573C583.859 647.323 583.498 648.221 583.4 649.166C583.302 650.11 583.471 651.063 583.888 651.916C584.304 652.77 584.952 653.49 585.757 653.993C586.562 654.497 587.492 654.765 588.442 654.766H607.815C609.564 654.766 611.29 654.359 612.854 653.575C614.419 652.792 615.779 651.654 616.826 650.252C619.513 646.493 621.369 642.206 622.272 637.674C624.039 624.791 624.328 619.056 622.705 612.293ZM414.041 618.398C413.951 618.019 413.966 617.623 414.085 617.252C414.204 616.881 414.422 616.55 414.716 616.294C414.928 616.03 415.194 615.815 415.496 615.663C415.798 615.511 416.129 615.425 416.467 615.41C416.59 615.396 416.713 615.396 416.836 615.41C418.828 615.716 421.543 618.398 424.482 622.912C425.591 624.615 426.539 626.269 427.245 627.586C425.848 626.991 424.033 626.188 422.25 625.273C417.463 622.719 414.523 620.31 414.041 618.398ZM414.041 627.955C414.839 627.545 415.731 627.352 416.627 627.394C419.105 627.527 421.553 627.996 423.904 628.791L413.206 629.9V629.642C413.168 629.311 413.227 628.975 413.375 628.676C413.523 628.377 413.754 628.126 414.041 627.955ZM456.69 645.208C457.086 646.658 456.996 648.199 456.433 649.593C455.774 650.975 450.955 653.77 440.546 653.593C429.591 653.417 412.097 649.224 403.504 646.75C401.867 646.282 400.471 645.208 399.6 643.746C400.484 644.035 401.624 644.325 403.134 644.694C406.347 645.465 410.812 646.38 415.696 647.231C423.904 648.772 432.206 649.765 440.546 650.203H440.739C446.464 650.362 452.078 648.604 456.69 645.208ZM451.196 622.06C451.678 624.389 452.128 626.397 452.529 628.245C450.923 628.052 448.144 628.646 444.289 632.132C443.711 632.681 443.174 633.272 442.682 633.899C442.039 634.861 441.17 635.649 440.15 636.196C439.13 636.742 437.992 637.029 436.835 637.032C432.643 637.353 430.667 629.129 430.635 629C430.635 629 430.635 629 430.635 628.887C430.41 628.341 423.984 613.129 418.619 583.829C420.417 585.715 422.472 587.337 424.723 588.648C431.835 592.557 439.596 595.147 447.63 596.294C448.15 604.962 449.342 613.577 451.196 622.06ZM592.779 609.675L577.808 592.359C583.72 591.035 589.259 588.4 594.016 584.648C596.887 582.401 599.457 579.794 601.662 576.89L610.24 594.206C607.561 593.857 604.839 594.327 602.433 595.555C600.902 596.332 599.621 597.525 598.737 598.997C597.854 600.469 597.403 602.16 597.438 603.877C597.398 605.624 597.62 607.368 598.096 609.049C598.551 610.467 598.629 611.978 598.321 613.435C598.241 614.177 597.964 614.884 597.517 615.483C597.071 616.082 596.472 616.551 595.783 616.839C595.573 614.201 594.539 611.694 592.827 609.675H592.779ZM584.025 616.519C583.881 616.136 583.837 615.723 583.896 615.319C583.955 614.914 584.115 614.532 584.362 614.206C584.495 613.928 584.695 613.688 584.945 613.508C585.195 613.329 585.486 613.215 585.792 613.177C586.739 613.017 589.004 613.434 593.582 617.546V618.205C593.582 619.313 593.502 620.518 593.47 621.851C588.297 620.341 584.844 618.43 584.073 616.519H584.025ZM584.282 627.763C584.048 627.573 583.87 627.323 583.765 627.041C583.661 626.758 583.634 626.453 583.687 626.157C583.674 625.846 583.738 625.537 583.872 625.257C584.007 624.977 584.208 624.734 584.458 624.55C585.824 623.603 589.052 623.779 593.39 625.064C593.39 625.691 593.39 626.317 593.39 626.943C587.012 628.935 584.924 628.133 584.33 627.699L584.282 627.763ZM617.212 607.507C615.011 607.137 612.698 608.117 610.417 610.511C607.108 613.932 605.823 621.868 604.168 633.562C603.611 638.223 602.752 642.842 601.598 647.392C600.233 652.211 599.06 652.79 598.723 652.822H587.398C586.856 652.83 586.323 652.683 585.862 652.399C585.401 652.114 585.031 651.704 584.796 651.216C584.621 650.849 584.531 650.448 584.531 650.042C584.531 649.637 584.621 649.236 584.796 648.87C587.279 649.94 589.947 650.513 592.651 650.557C594.435 650.574 596.207 650.253 597.871 649.61C600.04 648.726 600.859 643.907 602.257 634.719C602.401 633.691 602.578 632.614 602.722 631.586C602.867 630.558 603.06 629.16 603.253 627.811C604.232 619.683 605.598 608.535 613.678 606.479C614.442 606.181 615.277 606.117 616.078 606.294C616.878 606.471 617.608 606.882 618.175 607.474L618.352 607.812C617.999 607.62 617.677 607.507 617.26 607.443L617.212 607.507Z" fill="#1A1A1A"/>
<path d="M634.945 256.954C635.202 260.841 639.957 263.042 646.093 262.528C652.808 262.014 656.02 261.805 656.647 257.934C657.225 254.448 653.081 249.774 645.756 250.031C637.997 250.336 634.688 253.019 634.945 256.954Z" fill="white"/>
<path d="M416.145 633.963C412.755 633.963 411.551 632.453 411.149 631.12C411.102 630.984 411.084 630.84 411.096 630.697C411.107 630.554 411.148 630.414 411.216 630.288C411.284 630.161 411.377 630.05 411.49 629.961C411.603 629.872 411.733 629.807 411.872 629.771C412.009 629.726 412.154 629.71 412.297 629.722C412.441 629.735 412.58 629.776 412.708 629.843C412.835 629.911 412.947 630.003 413.038 630.114C413.129 630.226 413.197 630.355 413.237 630.493C413.462 631.232 414.346 632.004 417.35 631.682C421.062 631.062 424.682 629.982 428.128 628.47C428.395 628.35 428.698 628.339 428.971 628.441C429.245 628.544 429.467 628.75 429.59 629.016C429.711 629.284 429.721 629.59 429.619 629.867C429.517 630.143 429.31 630.368 429.044 630.493C425.395 632.129 421.551 633.29 417.607 633.948C417.093 633.964 416.579 633.963 416.145 633.963Z" fill="white"/>
</svg>
