<svg width="508" height="580" viewBox="0 0 508 580" fill="none" xmlns="http://www.w3.org/2000/svg">
<path d="M5.18701 390.264C5.18701 390.264 -5.72644 394.996 7.5608 418.01C20.848 441.024 29.8192 452.384 29.8192 452.384C29.8192 452.384 32.2394 457.779 27.6613 458.858C23.0832 459.937 12.8017 458.858 11.029 464.608C9.25638 470.357 13.742 475.922 22.6362 480.346C31.5303 484.77 50.675 495.159 52.4014 496.115C54.1278 497.071 55.8697 499.521 52.8638 500.739C49.858 501.957 27.0601 505.549 29.4031 516.262C31.7461 526.975 58.5518 535.221 61.4651 536.177C64.3784 537.133 65.1183 538.32 64.9641 539.892C64.81 541.464 57.0412 541.942 50.598 543.221C44.1547 544.501 36.9099 547.121 38.775 553.179C40.6402 559.237 56.887 571.384 94.9452 573.218L112.626 572.894L121.473 557.48C138.429 523.352 135.701 503.267 131.308 498.674C126.915 494.08 121.104 499.167 116.849 504.177C112.595 509.186 108.417 515.753 106.953 515.121C105.489 514.489 104.841 513.256 105.412 510.25C105.982 507.244 111.824 479.791 103.577 472.546C95.3306 465.301 81.1648 483.491 78.6214 485.525C76.078 487.56 74.7677 484.785 74.7831 482.843C74.7985 480.901 74.9989 459.105 75.4614 449.178C75.9238 439.251 73.4884 432.685 67.3534 431.39C61.4497 430.141 57.4266 439.652 54.2512 443.136C51.0758 446.619 47.5304 441.872 47.5304 441.872C47.5304 441.872 42.0121 428.538 28.3087 405.725C14.6052 382.911 4.97118 390.31 4.97118 390.31" fill="#EBEBEB"/>
<path d="M113.75 577.009C103.746 560.208 86.4821 530.042 71.5147 504.223C56.5472 478.403 42.998 455.066 33.0865 438.218C28.123 429.817 24.1153 423.004 21.3253 418.272L18.1807 412.846C17.8262 412.245 17.5487 411.767 17.3637 411.428C17.1788 411.089 17.1017 410.934 17.1017 410.934L17.41 411.397C17.6104 411.736 17.9033 412.199 18.2732 412.784L21.5565 418.164C24.3928 422.788 28.4621 429.617 33.4718 438.018C43.4604 454.819 57.0868 478.095 72.0079 503.961C86.9291 529.826 104.193 559.961 114.105 576.809" fill="#E0E0E0"/>
<path d="M25.3332 466.781C25.7578 466.838 26.1759 466.936 26.5817 467.074C27.3833 467.274 28.5239 467.613 29.9266 468.045C32.7321 468.923 36.5857 470.218 40.7167 471.729L51.5068 475.644L54.7901 476.816C55.2049 476.922 55.604 477.083 55.9771 477.294C55.5519 477.247 55.1331 477.155 54.7285 477.016C53.9269 476.8 52.7862 476.461 51.3835 476.014C48.5781 475.12 44.7553 473.764 40.5934 472.253L29.8033 468.415L26.52 467.274C26.1057 467.159 25.7071 466.993 25.3332 466.781Z" fill="#E0E0E0"/>
<path d="M57.1952 476.091C57.0565 476.091 59.3841 467.999 62.4053 458.118C65.4265 448.237 68.0007 440.268 68.1549 440.299C68.309 440.33 65.966 448.453 62.8832 458.287C59.8003 468.122 57.3494 476.199 57.1952 476.091Z" fill="#E0E0E0"/>
<path d="M78.39 516.77C78.5691 516.372 78.7914 515.995 79.0528 515.645L80.9951 512.685C82.629 510.172 84.8795 506.704 87.1608 502.774C89.4422 498.843 91.5231 495.236 92.9412 492.6L94.6368 489.517C94.829 489.123 95.056 488.746 95.315 488.392C95.2066 488.816 95.0461 489.225 94.8372 489.61C94.4827 490.38 93.9586 491.475 93.2957 492.816C91.9393 495.498 89.9971 499.151 87.6387 503.082C85.2803 507.013 83.0143 510.466 81.2571 512.932C80.3785 514.15 79.7157 515.136 79.1607 515.799C78.9446 516.153 78.6858 516.479 78.39 516.77Z" fill="#E0E0E0"/>
<path d="M47.7148 514.735C48.1144 514.693 48.5175 514.693 48.9171 514.735L52.2004 514.828C54.975 514.921 58.7978 515.105 62.9905 515.336C67.1832 515.568 71.0214 515.815 73.7806 516.015L77.0485 516.277C77.449 516.291 77.847 516.348 78.2354 516.447C77.8368 516.506 77.4316 516.506 77.033 516.447L73.7498 516.354C70.9906 516.246 67.1678 516.077 62.9597 515.845C58.7515 515.614 54.9133 515.368 52.1695 515.167L48.8863 514.905C48.4897 514.904 48.0954 514.847 47.7148 514.735Z" fill="#E0E0E0"/>
<path d="M61.8506 552.979C62.3636 552.936 62.8791 552.936 63.3921 552.979L67.5848 553.071C71.1455 553.195 76.0473 553.379 81.4578 553.626C86.8682 553.873 91.77 554.119 95.3308 554.335L99.5235 554.613C100.043 554.618 100.559 554.68 101.065 554.797C100.552 554.84 100.036 554.84 99.5235 554.797L95.3153 554.689C91.7546 554.582 86.8528 554.397 81.4423 554.15C76.0319 553.904 71.1301 553.642 67.5693 553.441L63.3767 553.163C62.8628 553.157 62.3512 553.095 61.8506 552.979Z" fill="#E0E0E0"/>
<path d="M100.14 554.458C100.357 553.949 100.625 553.464 100.941 553.01L103.269 549.156C105.242 545.904 107.893 541.449 110.776 536.331C113.658 531.213 116.063 526.635 117.82 523.26L119.901 519.267C120.133 518.767 120.406 518.288 120.718 517.834C120.556 518.364 120.35 518.88 120.101 519.375C119.654 520.346 119.007 521.749 118.175 523.444C116.494 526.866 114.09 531.552 111.254 536.624C108.417 541.695 105.658 546.165 103.546 549.372C102.529 550.913 101.681 552.254 101.065 553.133C100.788 553.596 100.479 554.039 100.14 554.458Z" fill="#E0E0E0"/>
<path d="M486.194 493.771C484.096 494.274 482.122 495.195 480.39 496.48C478.657 497.765 477.202 499.386 476.113 501.248C473.951 504.989 472.675 509.176 472.382 513.487C471.581 521.78 474.448 530.921 478.024 538.427C486.101 533.926 489.878 523.892 491.465 518.681C493.978 510.435 493.531 494.018 486.194 493.771Z" fill="#EA7B42"/>
<path d="M467.28 550.188C468.233 547.972 468.583 545.543 468.296 543.148C468.01 540.753 467.095 538.475 465.646 536.546C464.168 534.645 462.326 533.058 460.227 531.878C458.128 530.698 455.815 529.947 453.423 529.672C452.335 529.431 451.208 529.43 450.12 529.666C449.032 529.903 448.007 530.373 447.118 531.044C446.404 531.8 445.905 532.732 445.672 533.746C445.439 534.759 445.48 535.817 445.793 536.809C446.459 538.793 447.634 540.567 449.199 541.957C454.317 546.905 460.174 550.774 467.28 550.188Z" fill="#EA7B42"/>
<path d="M470.748 576.778C470.838 576.208 470.874 575.629 470.856 575.052C470.856 573.849 470.856 572.277 470.995 570.427C471.315 565.24 470.794 560.035 469.454 555.013C468.005 550.008 465.255 545.477 461.484 541.88C460.325 540.823 459.047 539.902 457.677 539.136C457.199 538.859 456.798 538.705 456.536 538.566C456.274 538.427 456.12 538.397 456.105 538.427C457.925 539.508 459.63 540.774 461.191 542.204C464.815 545.816 467.466 550.286 468.899 555.198C470.225 560.135 470.812 565.242 470.641 570.351C470.641 572.324 470.641 573.927 470.641 574.975C470.61 575.578 470.646 576.183 470.748 576.778Z" fill="#263238"/>
<path d="M485.439 506.304C485.332 506.531 485.249 506.768 485.193 507.013L484.638 509.078C484.144 510.866 483.482 513.456 482.695 516.678C481.154 523.121 479.042 532.092 476.977 541.957C474.911 551.822 473.262 560.871 472.152 567.422C471.597 570.69 471.181 573.326 470.903 575.129C470.78 576.008 470.688 576.671 470.611 577.256C470.593 577.503 470.593 577.75 470.611 577.996C470.709 577.766 470.771 577.521 470.796 577.272L471.212 575.175L472.661 567.468C473.878 560.963 475.589 551.961 477.655 542.065C479.72 532.169 481.709 523.229 483.189 516.77C483.913 513.595 484.514 510.99 484.931 509.063C485.131 508.215 485.27 507.521 485.393 506.982C485.423 506.757 485.439 506.531 485.439 506.304Z" fill="#263238"/>
<path d="M478.024 557.541C479.883 552.81 482.845 548.591 486.662 545.234C490.48 541.877 495.044 539.48 499.975 538.242C502.487 537.626 505.601 537.549 507.111 539.645C508.622 541.741 507.558 544.686 506.156 546.844C503.118 551.307 498.827 554.771 493.823 556.798C488.82 558.826 483.327 559.326 478.04 558.235" fill="#EA7B42"/>
<path d="M497.247 545.672C496.725 545.737 496.209 545.845 495.705 545.996C495.09 546.138 494.483 546.313 493.886 546.52C493.193 546.782 492.345 546.998 491.528 547.383C490.586 547.765 489.665 548.198 488.769 548.678C487.709 549.205 486.68 549.792 485.686 550.435C483.442 551.918 481.374 553.65 479.52 555.599C477.735 557.578 476.184 559.755 474.896 562.088C474.322 563.111 473.807 564.166 473.354 565.248C472.948 566.181 472.603 567.138 472.321 568.115C472.057 568.912 471.846 569.726 471.689 570.551C471.525 571.162 471.412 571.786 471.35 572.416C471.247 572.924 471.191 573.44 471.181 573.957C471.319 573.957 471.566 571.676 472.722 568.192C473.029 567.236 473.394 566.299 473.817 565.387C474.274 564.332 474.789 563.303 475.358 562.304C476.667 560.028 478.218 557.898 479.982 555.953C481.79 554.042 483.795 552.326 485.963 550.836C486.98 550.173 487.952 549.541 488.907 549.048C489.863 548.555 490.772 548.107 491.605 547.722C495.027 546.304 497.277 545.811 497.247 545.672Z" fill="#263238"/>
<path fill-rule="evenodd" clip-rule="evenodd" d="M96.2555 148.411C97.5533 145.867 99.1863 143.508 101.111 141.398L98.4134 133.968L109.404 126.892L115.046 132.426C117.761 131.546 120.58 131.028 123.431 130.885L126.776 123.733L139.555 126.492V134.399C142.094 135.697 144.448 137.33 146.553 139.255L153.982 136.557L161.058 147.548L155.524 153.189C156.404 155.905 156.922 158.724 157.065 161.575L164.233 164.92L161.459 177.699H153.551C152.253 180.238 150.62 182.592 148.695 184.696L151.408 192.126L140.402 199.202L134.761 193.668C132.047 194.555 129.227 195.074 126.375 195.209L123.03 202.377L110.252 199.602V191.695C107.711 190.398 105.357 188.765 103.254 186.839L95.8238 189.552L88.7487 178.546L94.2824 172.905C93.4023 170.189 92.884 167.37 92.7409 164.519L85.5886 161.174L88.3479 148.396H96.2555V148.411ZM111.346 159.54C110.77 162.252 111.009 165.073 112.035 167.648C113.06 170.223 114.826 172.437 117.108 174.009C119.391 175.582 122.088 176.443 124.86 176.484C127.631 176.525 130.353 175.744 132.681 174.239C135.009 172.734 136.839 170.574 137.94 168.03C139.041 165.486 139.363 162.673 138.867 159.946C138.37 157.219 137.077 154.7 135.15 152.707C133.223 150.715 130.749 149.338 128.04 148.75C126.235 148.359 124.371 148.327 122.554 148.658C120.737 148.989 119.003 149.675 117.452 150.678C115.901 151.68 114.563 152.979 113.515 154.5C112.468 156.021 111.73 157.734 111.346 159.54Z" fill="#EA7B42"/>
<path fill-rule="evenodd" clip-rule="evenodd" d="M75.5535 90.1909C76.1939 88.9611 76.9863 87.8167 77.9119 86.7844L76.6018 83.1773L81.9505 79.7399L84.6789 82.422C85.9974 82.0018 87.3658 81.7582 88.7483 81.6975L90.3668 78.2139L96.5326 79.5547V83.3929C97.7691 84.0222 98.9149 84.8155 99.9391 85.7514L103.546 84.4414L106.984 89.7747L104.286 92.5185C104.72 93.8342 104.969 95.2036 105.026 96.5878L108.51 98.2063L107.169 104.372H103.33C102.699 105.603 101.906 106.743 100.972 107.763L102.282 111.37L96.9487 114.808L94.205 112.126C92.8872 112.551 91.5188 112.8 90.1356 112.865L88.5171 116.334L82.3513 114.992V111.154C81.1148 110.525 79.9689 109.732 78.9447 108.796L75.3378 110.106L71.9157 104.773L74.5978 102.045C74.1724 100.721 73.9237 99.3481 73.8579 97.9598L70.3743 96.3413L71.7307 90.1755H75.5535V90.1909ZM82.8908 95.586C82.6038 96.9032 82.7142 98.2757 83.2077 99.5303C83.7013 100.785 84.5561 101.865 85.6637 102.633C86.7713 103.402 88.082 103.825 89.43 103.848C90.7779 103.872 92.1024 103.494 93.236 102.764C94.3695 102.035 95.2611 100.985 95.7978 99.7485C96.3346 98.5118 96.4923 97.1434 96.2511 95.817C96.0099 94.4906 95.3807 93.2658 94.443 92.2972C93.5052 91.3286 92.3013 90.6597 90.9834 90.3757C89.224 90.0046 87.3893 90.3439 85.8792 91.3199C84.3691 92.2958 83.306 93.8295 82.9216 95.586H82.8908Z" fill="#EA7B42"/>
<path d="M38.3127 138.9C38.3127 138.9 38.3127 138.715 38.3127 138.346C38.4171 137.812 38.588 137.295 38.8214 136.804C39.6558 134.948 41.1189 133.447 42.9525 132.565C44.323 131.905 45.8373 131.6 47.3564 131.678C48.8754 131.757 50.3506 132.215 51.6463 133.012C53.246 134.005 54.4992 135.469 55.2342 137.203C55.9691 138.937 56.1497 140.855 55.7513 142.696C55.3528 144.536 54.3947 146.208 53.0085 147.482C51.6222 148.757 49.8757 149.571 48.0084 149.814C46.5 150.005 44.9679 149.812 43.5535 149.255C42.1391 148.697 40.888 147.792 39.9158 146.623C38.6136 145.061 37.8992 143.092 37.8965 141.058C37.8969 140.539 37.9589 140.022 38.0815 139.517C38.174 139.163 38.2357 138.977 38.2665 138.977C38.2974 138.977 38.1741 139.764 38.2665 141.12C38.4082 143.03 39.1654 144.841 40.4245 146.284C41.4402 147.445 42.7587 148.302 44.233 148.758C45.7072 149.213 47.2791 149.25 48.7731 148.864C50.2671 148.478 51.6244 147.684 52.6934 146.572C53.7624 145.459 54.5011 144.071 54.827 142.563C55.1529 141.055 55.053 139.485 54.5387 138.031C54.0244 136.576 53.1159 135.293 51.9145 134.324C50.7131 133.356 49.2662 132.741 47.7354 132.547C46.2045 132.353 44.65 132.589 43.2454 133.228C41.5047 134.017 40.0701 135.354 39.1605 137.035C38.5439 138.16 38.3898 138.931 38.3127 138.9Z" fill="#263238"/>
<path d="M28.9708 131.979C28.5657 132.015 28.1583 132.015 27.7531 131.979L24.0536 132.103L24.1924 131.979C23.7762 134.045 23.2213 136.727 22.5585 139.949L22.4351 139.686L26.9053 141.721L27.044 141.798V141.952C27.1323 143.703 27.4537 145.435 27.9997 147.101V147.271L27.8764 147.394L24.4544 150.924V150.523L28.8938 157.336L28.4621 157.197L33.0865 155.486H33.3023L33.4718 155.641C34.7629 156.812 36.2039 157.808 37.7571 158.6L37.9729 158.708V158.939C37.9729 160.48 37.9729 162.146 37.9729 163.857L37.6492 163.456L45.5877 165.167L45.1097 165.398L47.1753 160.943L47.2986 160.696H47.5606C49.2903 160.609 51.0007 160.292 52.6474 159.756L52.9095 159.679L53.1098 159.864L56.7168 163.286H56.1619L62.9905 158.877L62.821 159.432L61.1253 154.808L61.0328 154.546L61.2178 154.346C62.3856 153.063 63.3806 151.632 64.1775 150.091C64.979 149.582 64.3932 149.953 64.5781 149.829H69.4954L69.0484 150.184C69.6341 147.502 70.2096 144.856 70.7748 142.245L71.0215 142.754L66.5667 140.673L66.32 140.55V140.164C66.234 138.431 65.9231 136.716 65.3952 135.062L65.3027 134.8L65.5031 134.615L68.9405 131.101V131.656L64.5474 124.812L65.056 124.981L60.4317 126.646L60.2005 126.738L60.0155 126.569C58.7328 125.389 57.2965 124.389 55.7457 123.594L55.5299 123.486V123.239C55.5299 121.559 55.5299 119.925 55.5299 118.338L55.8382 118.708L47.8998 116.95L48.2852 116.75C47.5607 118.291 46.867 119.833 46.1887 121.189V121.374H45.9883C44.2437 121.44 42.5165 121.746 40.8554 122.283H40.6704L40.5471 122.16L37.0634 118.692H37.4025L30.5277 123.039L30.6048 122.792L32.2387 127.417V127.509C31.0653 128.816 30.032 130.242 29.1558 131.764C29.1757 131.656 29.2121 131.552 29.2637 131.455C29.3562 131.26 29.5103 130.967 29.7261 130.577C30.3854 129.405 31.1712 128.309 32.0692 127.309V127.463L30.3273 122.839V122.684L30.466 122.592L37.2792 118.137L37.4488 118.014L37.6183 118.168L41.1329 121.59L40.84 121.513C42.55 120.948 44.3284 120.616 46.1271 120.526L45.8497 120.711L47.8998 116.257L48.0231 115.995H48.3005L56.239 117.69H56.5473V117.999C56.5473 119.54 56.5473 121.22 56.5473 122.916L56.3315 122.561C57.944 123.391 59.4416 124.427 60.7863 125.644H60.3546L64.9789 123.948L65.2872 123.825L65.4722 124.118L69.8961 130.947L70.0811 131.239L69.8345 131.486L66.3971 135L66.505 134.554C67.0706 136.279 67.3974 138.073 67.4761 139.887L67.2141 139.502L71.6688 141.567L72.0079 141.721V142.076L70.2815 150.029L70.2045 150.384H69.8345H67.3836H64.9327L65.3335 150.137C64.5134 151.756 63.4762 153.255 62.2506 154.592L62.3431 154.13C62.9289 155.671 63.4992 157.29 64.0233 158.754L64.1466 159.109L63.8383 159.294L57.0097 163.702L56.7014 163.887L56.4394 163.641L52.9403 160.188L53.3874 160.296C51.6622 160.859 49.8673 161.18 48.0539 161.251L48.4393 161.005L46.3584 165.459L46.2042 165.768H45.8804L37.9266 164.026H37.6029V163.687C37.6029 161.991 37.6029 160.311 37.6029 158.785L37.8187 159.14C36.2161 158.309 34.7288 157.273 33.3948 156.057L33.7801 156.134L29.1558 157.798L28.8784 157.891L28.7243 157.644C27.1931 155.24 25.7338 152.958 24.3465 150.8L24.2077 150.569L24.3928 150.384L27.8611 146.901V147.209C27.3188 145.49 27.0077 143.707 26.9361 141.906L27.0903 142.137L22.1885 140.164L22.0189 140.087V139.902C22.7434 136.696 23.3445 134.045 23.8224 131.979V131.872H23.9457H27.5835H28.5239L28.9708 131.979Z" fill="#263238"/>
<g opacity="0.8">
<path fill-rule="evenodd" clip-rule="evenodd" d="M96.2555 148.411C97.5533 145.867 99.1863 143.508 101.111 141.398L98.4134 133.968L109.404 126.892L115.046 132.426C117.761 131.546 120.58 131.028 123.431 130.885L126.776 123.733L139.555 126.492V134.399C142.094 135.697 144.448 137.33 146.553 139.255L153.982 136.557L161.058 147.548L155.524 153.189C156.404 155.905 156.922 158.724 157.065 161.575L164.233 164.92L161.459 177.699H153.551C152.253 180.238 150.62 182.592 148.695 184.696L151.408 192.126L140.402 199.202L134.761 193.668C132.047 194.555 129.227 195.074 126.375 195.209L123.03 202.377L110.252 199.602V191.695C107.711 190.398 105.357 188.765 103.254 186.839L95.8238 189.552L88.7487 178.546L94.2824 172.905C93.4023 170.189 92.884 167.37 92.7409 164.519L85.5886 161.174L88.3479 148.396H96.2555V148.411ZM111.346 159.54C110.77 162.252 111.009 165.073 112.035 167.648C113.06 170.223 114.826 172.437 117.108 174.009C119.391 175.582 122.088 176.443 124.86 176.484C127.631 176.525 130.353 175.744 132.681 174.239C135.009 172.734 136.839 170.574 137.94 168.03C139.041 165.486 139.363 162.673 138.867 159.946C138.37 157.219 137.077 154.7 135.15 152.707C133.223 150.715 130.749 149.338 128.04 148.75C126.235 148.359 124.371 148.327 122.554 148.658C120.737 148.989 119.003 149.675 117.452 150.678C115.901 151.68 114.563 152.979 113.515 154.5C112.468 156.021 111.73 157.734 111.346 159.54Z" fill="white"/>
</g>
<path d="M418.294 135.078C415.118 99.4548 402.71 63.8474 378.54 37.4887C354.37 11.13 317.499 -4.70061 282.231 1.24936C246.962 7.19933 215.748 37.3346 213.374 73.0191C212.11 91.948 218.43 110.769 217.382 129.713C215.563 162.469 192.118 190.2 165.821 209.868C143.146 226.824 118.73 232.821 102.483 255.942C73.365 297.407 78.2051 345.176 95.423 373.755C101.342 383.574 111.038 392.807 122.66 400.684C156.048 423.312 197.806 429.154 236.897 419.181C297.568 403.767 352.32 365.431 383.889 315.781C420.498 258.039 423.581 193.591 418.294 135.078Z" fill="#EA7B42"/>
<g opacity="0.8">
<path d="M418.294 135.078C415.118 99.4548 402.71 63.8474 378.54 37.4887C354.37 11.13 317.499 -4.70061 282.231 1.24936C246.962 7.19933 215.748 37.3346 213.374 73.0191C212.11 91.948 218.43 110.769 217.382 129.713C215.563 162.469 192.118 190.2 165.821 209.868C143.146 226.824 118.73 232.821 102.483 255.942C73.365 297.407 78.2051 345.176 95.423 373.755C101.342 383.574 111.038 392.807 122.66 400.684C156.048 423.312 197.806 429.154 236.897 419.181C297.568 403.767 352.32 365.431 383.889 315.781C420.498 258.039 423.581 193.591 418.294 135.078Z" fill="white"/>
</g>
<path d="M163.045 389.077C164.433 389.077 165.558 387.952 165.558 386.564C165.558 385.177 164.433 384.052 163.045 384.052C161.658 384.052 160.533 385.177 160.533 386.564C160.533 387.952 161.658 389.077 163.045 389.077Z" fill="#EA7B42"/>
<path d="M203.031 431.066C203.764 431.066 204.357 430.472 204.357 429.74C204.357 429.008 203.764 428.414 203.031 428.414C202.299 428.414 201.706 429.008 201.706 429.74C201.706 430.472 202.299 431.066 203.031 431.066Z" fill="#EA7B42"/>
<path d="M290.508 437.478C281.46 441.178 271.101 454.157 270.361 464.361C269.621 474.566 274.986 484.724 283.248 490.812C291.727 496.735 302.105 499.295 312.365 497.995C319.626 497.209 327.009 494.62 331.926 489.225C337.383 483.259 339.094 474.627 338.293 466.596C337.198 455.544 331.402 444.8 322.107 438.727C312.813 432.654 300.049 431.775 290.508 437.478Z" fill="#EA7B42"/>
<g opacity="0.8">
<path d="M290.508 437.478C281.46 441.178 271.101 454.157 270.361 464.361C269.621 474.566 274.986 484.724 283.248 490.812C291.727 496.735 302.105 499.295 312.365 497.995C319.626 497.209 327.009 494.62 331.926 489.225C337.383 483.259 339.094 474.627 338.293 466.596C337.198 455.544 331.402 444.8 322.107 438.727C312.813 432.654 300.049 431.775 290.508 437.478Z" fill="white"/>
</g>
<path fill-rule="evenodd" clip-rule="evenodd" d="M360.952 241.468C360.952 242.364 360.686 243.24 360.188 243.986C359.69 244.731 358.982 245.312 358.154 245.655C357.326 245.998 356.415 246.088 355.536 245.913C354.657 245.738 353.849 245.306 353.215 244.672C352.582 244.039 352.15 243.231 351.975 242.352C351.8 241.473 351.89 240.562 352.233 239.734C352.576 238.906 353.157 238.198 353.902 237.7C354.647 237.202 355.524 236.936 356.42 236.936C357.015 236.936 357.604 237.054 358.154 237.281C358.704 237.509 359.204 237.843 359.624 238.264C360.045 238.684 360.379 239.184 360.607 239.734C360.835 240.284 360.952 240.873 360.952 241.468Z" fill="#EA7B42"/>
<path d="M288.242 73.8056C289.629 73.8056 290.754 72.6807 290.754 71.2931C290.754 69.9054 289.629 68.7805 288.242 68.7805C286.854 68.7805 285.729 69.9054 285.729 71.2931C285.729 72.6807 286.854 73.8056 288.242 73.8056Z" fill="#EA7B42"/>
<path d="M349.113 532.215C349.113 535.16 305.352 537.564 251.37 537.564C197.389 537.564 153.627 535.16 153.627 532.215C153.627 529.271 197.389 526.867 251.37 526.867C305.352 526.867 349.113 529.256 349.113 532.215Z" fill="#FAFBFB"/>
<path d="M103.161 578.705L125.496 532.662H371.757L401.045 578.597C401.045 578.597 103.099 581.68 103.099 578.705" fill="#263238"/>
<path d="M256.118 579.476C255.917 579.476 255.748 570.535 255.748 559.514C255.748 548.493 255.917 539.552 256.118 539.552C256.318 539.552 256.488 548.493 256.488 559.514C256.488 570.535 256.318 579.476 256.118 579.476Z" fill="#455B64"/>
<path d="M381.269 550.774C380.962 550.86 380.646 550.912 380.328 550.928L377.6 551.236L367.396 552.285L332.343 555.63L332.62 555.46L325.283 567.299L325.175 567.468H324.929H322.046L275.402 568.331L261.252 568.501H256.412H256.072C256.072 568.501 256.18 568.501 256.412 568.501H257.413L261.252 568.347L275.387 567.946L322.031 566.867H324.913L324.605 567.036L331.958 555.213L332.05 555.059H332.235L367.303 551.976L377.538 551.144L380.267 550.959C380.594 550.867 380.93 550.805 381.269 550.774Z" fill="#455B64"/>
<path d="M359.025 552.824C358.214 550.074 357.647 547.258 357.329 544.408C356.771 541.604 356.457 538.757 356.389 535.899C357.189 538.646 357.751 541.457 358.069 544.3C358.628 547.11 358.948 549.961 359.025 552.824Z" fill="#455B64"/>
<path d="M161.613 580C161.444 579.78 161.309 579.536 161.212 579.276C160.965 578.705 160.672 577.996 160.287 577.148C159.501 575.206 158.422 572.524 157.204 569.441L157.482 569.611L140.526 568.331C131.94 567.668 124.171 567.036 118.56 566.543L111.901 565.942C111.089 565.89 110.28 565.787 109.481 565.634C110.297 565.576 111.116 565.576 111.932 565.634L118.606 566.065C124.248 566.451 132.017 567.021 140.603 567.607L157.559 568.963H157.759V569.102C158.93 572.185 159.917 574.882 160.657 576.809L161.412 578.982C161.544 579.305 161.612 579.651 161.613 580Z" fill="#455B64"/>
<path d="M256.118 550.774C256.118 550.774 256.026 550.774 255.825 550.774H254.977H251.679L239.347 550.882L197.836 551.005H197.959L186.691 555.244L180.526 557.541H180.433L135.485 551.976L122.074 550.235L118.452 549.726L117.527 549.587H117.203C117.203 549.587 117.311 549.587 117.527 549.587H118.483L122.105 549.957L135.546 551.499L180.526 556.817H180.341L186.506 554.52L197.774 550.296H197.913L239.424 550.419L251.756 550.527H255.054H255.902C256.025 550.759 256.118 550.759 256.118 550.774Z" fill="#455B64"/>
<path d="M439.658 178.469H382.948V186.238H439.658V178.469Z" fill="#EA7B42"/>
<path d="M407.488 192.543H382.948V200.312H407.488V192.543Z" fill="#EA7B42"/>
<path d="M258.769 204.273C258.769 204.273 177.412 201.653 177.412 244.906C177.412 293.97 193.582 385.886 258.769 384.93C323.957 383.975 335.919 255.095 336.658 249.283C336.658 249.345 340.05 207.988 258.769 204.273Z" fill="#EA7B42"/>
<path d="M334.701 238.169C334.601 238.272 334.487 238.36 334.362 238.431L333.329 239.125C332.435 239.742 331.048 240.574 329.244 241.607C324.122 244.465 318.751 246.853 313.198 248.744C304.956 251.545 296.457 253.523 287.826 254.647C277.264 255.976 266.623 256.563 255.98 256.404C245.339 256.453 234.704 255.938 224.118 254.863C215.444 253.927 206.96 251.699 198.946 248.251C193.553 245.888 188.561 242.7 184.148 238.801C182.964 237.736 181.842 236.604 180.788 235.41L179.986 234.47C179.884 234.363 179.796 234.244 179.724 234.115C179.842 234.201 179.951 234.299 180.048 234.408L180.911 235.287C181.682 236.073 182.823 237.183 184.395 238.539C188.854 242.294 193.846 245.364 199.208 247.649C207.19 250.986 215.62 253.131 224.226 254.016C234.782 255.075 245.386 255.59 255.995 255.557C266.595 255.717 277.194 255.156 287.718 253.877C296.307 252.803 304.773 250.904 312.997 248.204C318.536 246.375 323.913 244.091 329.075 241.375C330.894 240.389 332.296 239.603 333.237 239.048L334.316 238.431C334.433 238.328 334.562 238.241 334.701 238.169Z" fill="#263238"/>
<path d="M285.529 254.509C285.613 254.909 285.654 255.317 285.653 255.726C285.653 256.512 285.73 257.699 285.73 259.21C285.73 263.506 285.276 267.789 284.373 271.989C283.735 274.896 282.805 277.731 281.599 280.451C280.246 283.601 278.439 286.535 276.234 289.16C273.794 292.075 270.856 294.533 267.556 296.421C265.794 297.392 263.941 298.187 262.022 298.794C260.017 299.39 257.946 299.742 255.857 299.843C251.733 299.963 247.653 298.967 244.049 296.96C240.763 295.11 237.868 292.639 235.525 289.684C231.561 284.616 228.97 278.612 228.003 272.251C227.291 268.02 227.017 263.728 227.186 259.441C227.186 257.9 227.309 256.744 227.386 255.958C227.402 255.548 227.453 255.141 227.54 254.74C227.583 255.145 227.583 255.553 227.54 255.958C227.54 256.852 227.54 258.008 227.54 259.441C227.521 263.699 227.887 267.951 228.635 272.143C229.692 278.336 232.284 284.165 236.172 289.099C238.499 291.975 241.356 294.376 244.589 296.174C248.052 298.084 251.964 299.031 255.918 298.918C257.918 298.825 259.9 298.494 261.822 297.931C263.675 297.34 265.466 296.571 267.171 295.635C270.388 293.809 273.258 291.429 275.649 288.605C277.822 286.052 279.614 283.196 280.967 280.128C282.183 277.463 283.133 274.685 283.803 271.834C284.755 267.689 285.297 263.461 285.421 259.21C285.421 257.776 285.421 256.62 285.514 255.726C285.476 255.321 285.481 254.913 285.529 254.509Z" fill="#263238"/>
<path d="M304.889 354.425C304.781 354.425 304.257 352.683 302.87 349.662C300.891 345.404 298.362 341.424 295.348 337.824C290.86 332.51 285.358 328.145 279.163 324.983C271.526 321.201 263.065 319.388 254.549 319.711C246.034 320.035 237.734 322.483 230.407 326.833C220.404 332.948 212.741 342.24 208.641 353.223C207.485 356.306 207.1 358.155 206.992 358.124C207.04 357.681 207.128 357.243 207.254 356.814C207.424 355.951 207.794 354.702 208.302 353.099C209.836 348.615 211.994 344.371 214.715 340.49C218.769 334.707 223.962 329.813 229.975 326.109C237.407 321.634 245.851 319.115 254.519 318.786C263.188 318.458 271.798 320.33 279.548 324.228C285.814 327.475 291.357 331.958 295.841 337.408C298.842 341.08 301.316 345.153 303.194 349.508C303.699 350.691 304.142 351.9 304.519 353.13C304.687 353.548 304.811 353.982 304.889 354.425Z" fill="#263238"/>
<path d="M292.234 311.419L295.98 294.586H328.859C327.688 299.58 326.054 305.376 324.235 311.542L292.234 311.419Z" fill="#FAFBFB"/>
<path d="M218.723 311.419L214.977 294.586H182.098C183.27 299.58 184.256 305.376 186.106 311.542L218.723 311.419Z" fill="#FAFBFB"/>
<path opacity="0.4" d="M332.358 234.054C324.497 221.213 303.672 206.308 258.77 204.273C258.77 204.273 208.442 202.655 186.954 223.002C184.916 225.095 183.074 227.37 181.451 229.799C180.141 232.235 198.253 253.969 256.411 252.104C316.404 250.177 332.358 234.054 332.358 234.054Z" fill="black"/>
<path d="M175.994 157.321C173.112 150.862 171.725 143.448 173.682 136.681C175.64 129.914 181.482 123.964 188.526 123.332" fill="#263238"/>
<path d="M186.198 123.748C186.291 123.871 185.011 124.827 183.331 126.831C181.122 129.313 179.275 132.094 177.844 135.093C176.499 138.149 175.356 141.29 174.422 144.496C174.113 145.854 173.722 147.192 173.25 148.503C173.199 147.091 173.382 145.679 173.79 144.326C174.555 141.026 175.628 137.806 176.996 134.707C178.464 131.622 180.444 128.807 182.853 126.384C183.773 125.282 184.912 124.384 186.198 123.748Z" fill="#EA7B42"/>
<path d="M338.647 157.321C341.53 150.862 342.932 143.448 340.975 136.681C339.017 129.914 333.16 123.964 326.115 123.332" fill="#263238"/>
<path d="M328.458 123.748C329.737 124.362 330.876 125.233 331.803 126.307C334.217 128.726 336.198 131.541 337.661 134.63C339.032 137.729 340.111 140.949 340.882 144.249C341.271 145.606 341.453 147.015 341.422 148.427C340.941 147.119 340.55 145.779 340.25 144.419C339.309 141.215 338.166 138.075 336.828 135.016C335.393 132.016 333.54 129.234 331.325 126.754C329.645 124.827 328.381 123.871 328.458 123.748Z" fill="#EA7B42"/>
<path d="M182.514 189.383C178.594 185.379 175.715 180.475 174.132 175.1C172.55 169.725 172.31 164.043 173.435 158.554C178.059 134.862 195.37 92.2718 258.77 93.0887C325.267 94.029 337.738 140.057 339.896 162.238C340.346 166.771 339.898 171.349 338.575 175.708C337.252 180.067 335.082 184.122 332.188 187.641C322.292 199.587 301.36 215.002 258.816 214.986C216.673 215.002 194.06 201.021 182.514 189.383Z" fill="#EA7B42"/>
<path d="M229.143 95.925C229.3 96.1753 229.424 96.4447 229.513 96.7266C229.759 97.3586 230.052 98.1294 230.422 99.0542C231.224 101.074 232.334 104.002 234.075 107.455C236.034 111.51 238.726 115.168 242.014 118.245C245.991 122.068 251.295 124.201 256.812 124.195C262.322 123.85 267.561 121.681 271.702 118.029C275.096 115.049 277.939 111.496 280.103 107.532C281.587 104.868 282.915 102.119 284.08 99.3007C284.479 98.2505 284.932 97.2215 285.436 96.2178C285.405 96.5093 285.332 96.7948 285.221 97.0657C285.066 97.6206 284.789 98.4222 284.419 99.4396C283.373 102.336 282.121 105.153 280.673 107.871C278.539 111.945 275.688 115.6 272.257 118.661C267.98 122.457 262.551 124.704 256.843 125.043C253.882 125.118 250.943 124.528 248.241 123.317C245.745 122.184 243.449 120.653 241.444 118.784C238.109 115.608 235.409 111.826 233.49 107.64C232.173 104.858 231.035 101.996 230.083 99.0697C229.744 98.0369 229.497 97.2198 229.343 96.6803C229.241 96.4394 229.173 96.185 229.143 95.925Z" fill="#263238"/>
<path d="M300.79 186.701C269.961 194.254 239.81 194.531 210.492 187.024C205.135 185.629 200.395 182.494 197.016 178.11C193.636 173.726 191.81 168.343 191.825 162.808V162.377C191.825 155.733 194.464 149.362 199.161 144.665C203.859 139.967 210.23 137.328 216.873 137.328H294.778C301.421 137.328 307.792 139.967 312.49 144.665C317.187 149.362 319.826 155.733 319.826 162.377C319.831 167.976 317.958 173.415 314.507 177.825C311.056 182.234 306.226 185.359 300.79 186.701Z" fill="#263238"/>
<path d="M232.796 167.202C232.618 168.312 232.114 169.345 231.348 170.169C230.583 170.993 229.59 171.572 228.496 171.832C227.402 172.092 226.255 172.021 225.2 171.63C224.146 171.238 223.231 170.543 222.572 169.632C221.913 168.72 221.539 167.634 221.497 166.51C221.455 165.386 221.747 164.275 222.336 163.317C222.926 162.359 223.786 161.597 224.808 161.128C225.83 160.659 226.969 160.504 228.079 160.681C229.568 160.924 230.9 161.746 231.784 162.968C232.668 164.19 233.032 165.712 232.796 167.202Z" fill="white"/>
<path d="M297.86 163.903C297.684 165.014 297.182 166.049 296.418 166.875C295.654 167.702 294.662 168.283 293.568 168.545C292.473 168.808 291.325 168.739 290.27 168.349C289.214 167.959 288.298 167.264 287.637 166.353C286.977 165.442 286.601 164.355 286.558 163.23C286.515 162.106 286.807 160.993 287.397 160.035C287.986 159.076 288.847 158.314 289.87 157.844C290.893 157.375 292.032 157.219 293.143 157.398C294.629 157.64 295.958 158.46 296.842 159.679C297.725 160.897 298.091 162.415 297.86 163.903Z" fill="white"/>
<path d="M272.874 164.627C273.148 166.32 272.85 168.056 272.026 169.56C271.274 171.251 270.133 172.74 268.697 173.907C266.928 175.307 264.781 176.145 262.531 176.311C260.3 176.47 258.076 175.931 256.165 174.77C254.607 173.82 253.301 172.509 252.357 170.947C251.372 169.566 250.878 167.894 250.955 166.199C251.509 167.688 252.201 169.123 253.02 170.485C253.98 171.858 255.233 173.001 256.689 173.83C258.45 174.807 260.461 175.242 262.469 175.078C264.497 174.931 266.439 174.203 268.065 172.982C269.405 171.942 270.509 170.628 271.302 169.128C271.971 167.683 272.497 166.175 272.874 164.627Z" fill="white"/>
</svg>
