<svg width="83" height="79" viewBox="0 0 83 79" fill="none" xmlns="http://www.w3.org/2000/svg">
<path d="M77.9998 27.4022C76.7112 27.4011 75.4744 27.9098 74.5595 28.8172C73.6445 29.7247 73.1257 30.9572 73.1162 32.2458L52.3175 33.2218C51.9433 31.5195 51.1784 29.9275 50.0835 28.5714C48.9885 27.2153 47.5934 26.1322 46.0081 25.4077C44.4229 24.6831 42.691 24.3369 40.949 24.3964C39.2071 24.4558 37.5028 24.9193 35.9706 25.7503C35.4422 26.0354 34.9379 26.3632 34.4627 26.7302L21.9716 12.9231C22.6128 11.7594 22.9486 10.4521 22.9475 9.12336C22.9452 8.61854 22.8956 8.11505 22.7995 7.61947L43.0822 4.55567C43.2033 4.7229 43.3458 4.87351 43.5061 5.00364C43.8831 5.30056 44.3395 5.47912 44.8179 5.51678C45.2963 5.55443 45.7751 5.44949 46.1938 5.21521C46.6126 4.98092 46.9525 4.6278 47.1707 4.20044C47.3889 3.77308 47.4756 3.29065 47.4198 2.81406C47.364 2.33748 47.1682 1.88811 46.8572 1.52272C46.5462 1.15733 46.1338 0.892298 45.6723 0.761096C45.2107 0.629895 44.7206 0.638408 44.2639 0.785558C43.8072 0.932707 43.4043 1.21189 43.1062 1.58786C42.9313 1.80972 42.796 2.06003 42.7062 2.32781L21.3236 4.37568C20.6815 3.52364 19.8731 2.81082 18.9474 2.28037C18.0217 1.74992 16.998 1.41289 15.9382 1.28969C14.8784 1.16649 13.8047 1.25969 12.782 1.56363C11.7593 1.86758 10.8089 2.37594 9.98846 3.05794C9.16799 3.73994 8.4945 4.58139 8.00877 5.53131C7.52303 6.48124 7.23517 7.51987 7.16262 8.58431C7.09006 9.64874 7.23432 10.7168 7.58666 11.7239C7.93899 12.7309 8.49208 13.656 9.21241 14.443L2.48485 31.6419C2.2514 31.6501 2.02065 31.6947 1.80089 31.7739C1.34972 31.9407 0.958157 32.2376 0.675743 32.627C0.393329 33.0164 0.232744 33.4809 0.214311 33.9616C0.195878 34.4422 0.320423 34.9176 0.572185 35.3275C0.823948 35.7374 1.19162 36.0634 1.62869 36.2643C2.06577 36.4652 2.55262 36.532 3.02764 36.4562C3.50267 36.3804 3.94454 36.1654 4.29737 35.8384C4.65019 35.5114 4.89811 35.0872 5.00978 34.6193C5.12144 34.1514 5.09183 33.6608 4.92469 33.2098C4.81057 32.9047 4.63802 32.6248 4.41672 32.3858L11.7402 16.2869C12.7174 16.7382 13.777 16.9838 14.8531 17.0086C15.9292 17.0334 16.9989 16.8367 17.9958 16.4309L31.0749 30.8939C29.8839 33.4267 29.6818 36.313 30.5083 38.987C31.3348 41.661 33.1302 43.9299 35.5427 45.349L27.6712 64.9477C26.6111 64.9481 25.565 65.1891 24.6116 65.6526C23.6583 66.1162 22.8226 66.79 22.1675 67.6235L12.2682 58.2001C12.5092 57.6775 12.5586 57.0867 12.4079 56.5313C12.2571 55.9758 11.9158 55.4911 11.4436 55.162C10.9715 54.8329 10.3986 54.6804 9.82533 54.7312C9.25205 54.782 8.7149 55.0328 8.30794 55.4398C7.90098 55.8467 7.65015 56.3839 7.59937 56.9571C7.5486 57.5304 7.70111 58.1033 8.03021 58.5755C8.3593 59.0476 8.844 59.389 9.39943 59.5397C9.95487 59.6905 10.5456 59.641 11.0683 59.4L20.9796 69.8913C20.6101 71.0865 20.5661 72.3587 20.8522 73.5766C21.1383 74.7944 21.7441 75.9139 22.6072 76.8196C23.4703 77.7252 24.5593 78.3841 25.762 78.7285C26.9647 79.0728 28.2375 79.09 29.4491 78.7783C30.6607 78.4667 31.7672 77.8374 32.6545 76.9554C33.5417 76.0735 34.1776 74.9708 34.4965 73.7611C34.8155 72.5514 34.8059 71.2785 34.4688 70.0738C34.1317 68.869 33.4793 67.776 32.5788 66.9075L40.6263 46.9089C40.8543 46.9089 41.0783 46.9408 41.3063 46.9408C44.0215 46.9414 46.6456 45.961 48.6954 44.1803C50.7451 42.3995 52.0826 39.9382 52.4615 37.2495L73.2882 33.5697C73.5276 34.4484 74.0079 35.2425 74.6748 35.8626C75.3418 36.4826 76.1688 36.9039 77.0625 37.0787C77.9562 37.2535 78.881 37.1749 79.7325 36.8519C80.5839 36.5289 81.328 35.9742 81.8809 35.2506C82.4337 34.5269 82.7732 33.6631 82.861 32.7567C82.9488 31.8503 82.7814 30.9374 82.3777 30.1211C81.9741 29.3048 81.3502 28.6176 80.5766 28.1371C79.803 27.6567 78.9105 27.4021 77.9998 27.4022Z" fill="#0366A3"/>
</svg>
