<svg width="248" height="80" viewBox="0 0 248 80" fill="none" xmlns="http://www.w3.org/2000/svg">
<path d="M79.9763 46.725C79.4852 46.7225 79.0049 46.8692 78.5991 47.1457C78.1932 47.4222 77.8809 47.8155 77.7035 48.2734C77.5262 48.7314 77.4921 49.2324 77.6058 49.7102C77.7196 50.1879 77.9757 50.6198 78.3404 50.9487L73.1008 63.1759C72.248 62.8077 71.3171 62.6574 70.3918 62.7385C69.4665 62.8197 68.5759 63.1297 67.8002 63.6407C67.0246 64.1517 66.3882 64.8477 65.9485 65.6659C65.5088 66.484 65.2795 67.3987 65.2813 68.3276C65.283 68.771 65.3367 69.2126 65.4413 69.6435L51.8422 72.9353C51.6018 72.4175 51.1846 72.0023 50.6657 71.7644C50.1467 71.5264 49.5599 71.4813 49.0107 71.637C48.4614 71.7928 47.9857 72.1393 47.669 72.6142C47.3522 73.0892 47.2151 73.6615 47.2823 74.2285C47.3496 74.7954 47.6167 75.3198 48.0358 75.7075C48.4549 76.0952 48.9985 76.3207 49.5689 76.3437C50.1393 76.3667 50.6993 76.1856 51.1482 75.8328C51.5971 75.4801 51.9056 74.9789 52.0182 74.4192L66.4172 71.7194C66.881 72.3144 67.4603 72.8097 68.1203 73.1753C68.7803 73.5409 69.5073 73.7693 70.2578 73.847C71.0083 73.9246 71.7667 73.8497 72.4876 73.6269C73.2084 73.404 73.8767 73.0378 74.4525 72.5503C75.0283 72.0627 75.4996 71.4638 75.8381 70.7895C76.1766 70.1152 76.3754 69.3795 76.4225 68.6265C76.4696 67.8735 76.364 67.1187 76.1121 66.4075C75.8602 65.6963 75.4672 65.0433 74.9566 64.4878L79.8083 51.5687C79.8603 51.5687 79.9123 51.5687 79.9643 51.5687C80.2917 51.582 80.6184 51.529 80.9248 51.4128C81.2312 51.2967 81.5109 51.1199 81.7473 50.893C81.9836 50.666 82.1716 50.3937 82.3001 50.0922C82.4285 49.7908 82.4948 49.4665 82.4948 49.1389C82.4948 48.8112 82.4285 48.4869 82.3001 48.1855C82.1716 47.8841 81.9836 47.6117 81.7473 47.3848C81.5109 47.1578 81.2312 46.981 80.9248 46.8649C80.6184 46.7488 80.2917 46.6957 79.9643 46.709L79.9763 46.725Z" fill="#0366A3"/>
<path d="M82.0002 28.402C80.7116 28.4009 79.4748 28.9096 78.5598 29.8171C77.6449 30.7246 77.126 31.9571 77.1165 33.2457L56.3179 34.2216C55.9436 32.5193 55.1788 30.9273 54.0838 29.5712C52.9889 28.2151 51.5937 27.1321 50.0085 26.4075C48.4233 25.683 46.6913 25.3368 44.9494 25.3962C43.2074 25.4557 41.5031 25.9192 39.971 26.7501C39.4426 27.0353 38.9383 27.3631 38.4631 27.7301L25.9719 13.923C26.6132 12.7593 26.949 11.452 26.9479 10.1232C26.9456 9.61842 26.896 9.11493 26.7999 8.61935L47.0825 5.55555C47.2036 5.72278 47.3462 5.87338 47.5065 6.00352C47.8834 6.30043 48.3399 6.479 48.8183 6.51665C49.2966 6.55431 49.7754 6.44937 50.1942 6.21509C50.613 5.9808 50.9529 5.62768 51.1711 5.20032C51.3893 4.77296 51.476 4.29052 51.4202 3.81394C51.3644 3.33735 51.1686 2.88798 50.8575 2.52259C50.5465 2.1572 50.1342 1.89218 49.6726 1.76097C49.2111 1.62977 48.721 1.63829 48.2643 1.78544C47.8075 1.93258 47.4047 2.21177 47.1065 2.58774C46.9317 2.8096 46.7964 3.05991 46.7065 3.32769L25.324 5.37555C24.6818 4.52352 23.8734 3.81069 22.9478 3.28025C22.0221 2.7498 20.9983 2.41276 19.9385 2.28956C18.8788 2.16636 17.805 2.25956 16.7823 2.56351C15.7596 2.86745 14.8093 3.37582 13.9888 4.05782C13.1684 4.73982 12.4949 5.58127 12.0091 6.53119C11.5234 7.48111 11.2355 8.51975 11.163 9.58419C11.0904 10.6486 11.2347 11.7167 11.587 12.7238C11.9394 13.7308 12.4924 14.6559 13.2128 15.4429L6.48522 32.6417C6.25177 32.65 6.02102 32.6945 5.80126 32.7737C5.35008 32.9406 4.95852 33.2375 4.67611 33.6269C4.39369 34.0163 4.23311 34.4807 4.21468 34.9614C4.19624 35.4421 4.32079 35.9175 4.57255 36.3274C4.82431 36.7373 5.19199 37.0633 5.62906 37.2642C6.06614 37.4651 6.55298 37.5319 7.02801 37.4561C7.50304 37.3803 7.94491 37.1652 8.29773 36.8383C8.65056 36.5113 8.89848 36.087 9.01014 35.6191C9.12181 35.1512 9.0922 34.6607 8.92505 34.2097C8.81093 33.9046 8.63839 33.6247 8.41708 33.3857L15.7406 17.2868C16.7178 17.7381 17.7773 17.9837 18.8534 18.0085C19.9295 18.0333 20.9993 17.8366 21.9962 17.4308L35.0753 31.8938C33.8843 34.4266 33.6822 37.3129 34.5087 39.9869C35.3351 42.6609 37.1306 44.9298 39.543 46.3488L31.6715 65.9475C30.6115 65.948 29.5653 66.189 28.612 66.6525C27.6586 67.116 26.823 67.7899 26.1679 68.6234L16.2686 59.2C16.5096 58.6773 16.559 58.0866 16.4083 57.5312C16.2575 56.9757 15.9162 56.491 15.444 56.1619C14.9719 55.8328 14.399 55.6803 13.8257 55.7311C13.2524 55.7819 12.7153 56.0327 12.3083 56.4396C11.9013 56.8466 11.6505 57.3837 11.5997 57.957C11.549 58.5303 11.7015 59.1032 12.0306 59.5754C12.3597 60.0475 12.8444 60.3888 13.3998 60.5396C13.9552 60.6903 14.546 60.6409 15.0686 60.3999L24.98 70.8912C24.6104 72.0864 24.5664 73.3586 24.8525 74.5764C25.1386 75.7943 25.7445 76.9138 26.6075 77.8194C27.4706 78.7251 28.5597 79.384 29.7624 79.7283C30.9651 80.0727 32.2379 80.0899 33.4495 79.7782C34.6611 79.4665 35.7676 78.8373 36.6548 77.9553C37.5421 77.0734 38.178 75.9707 38.4969 74.761C38.8158 73.5513 38.8063 72.2784 38.4692 71.0737C38.1321 69.8689 37.4796 68.7759 36.5792 67.9074L44.6267 47.9087C44.8547 47.9087 45.0787 47.9407 45.3066 47.9407C48.0219 47.9413 50.646 46.9609 52.6957 45.1801C54.7455 43.3994 56.083 40.9381 56.4619 38.2494L77.2885 34.5696C77.5279 35.4482 78.0082 36.2424 78.6752 36.8625C79.3421 37.4825 80.1692 37.9037 81.0629 38.0786C81.9566 38.2534 82.8814 38.1748 83.7328 37.8518C84.5843 37.5287 85.3284 36.9741 85.8812 36.2504C86.4341 35.5268 86.7735 34.663 86.8613 33.7566C86.9491 32.8501 86.7817 31.9372 86.3781 31.1209C85.9744 30.3046 85.3506 29.6175 84.577 29.137C83.8034 28.6566 82.9109 28.402 82.0002 28.402Z" fill="#0366A3"/>
<path d="M3.94483 45.169C3.57007 44.8691 3.1148 44.687 2.63658 44.6457C2.15835 44.6044 1.67862 44.7059 1.25801 44.9371C0.837397 45.1684 0.494789 45.5192 0.273471 45.9451C0.052152 46.3711 -0.0379404 46.8531 0.0145768 47.3302C0.0670939 47.8073 0.259862 48.2582 0.568526 48.6258C0.87719 48.9934 1.28789 49.2612 1.74874 49.3955C2.20958 49.5298 2.69989 49.5244 3.15769 49.3801C3.61549 49.2358 4.02025 48.959 4.32081 48.5848C4.52067 48.3359 4.66949 48.0501 4.75877 47.7436C4.84805 47.4372 4.87602 47.1162 4.8411 46.7989C4.80618 46.4817 4.70905 46.1744 4.55525 45.8947C4.40146 45.615 4.19403 45.3684 3.94483 45.169Z" fill="#0366A3"/>
<path d="M68.9007 16.4869C70.8689 16.4869 72.4644 14.8914 72.4644 12.9231C72.4644 10.9549 70.8689 9.35938 68.9007 9.35938C66.9325 9.35938 65.3369 10.9549 65.3369 12.9231C65.3369 14.8914 66.9325 16.4869 68.9007 16.4869Z" fill="#0366A3"/>
<path d="M71.4727 20.3747C71.4719 20.8376 71.6084 21.2904 71.8651 21.6757C72.1217 22.061 72.4868 22.3615 72.9143 22.5393C73.3418 22.717 73.8124 22.7639 74.2665 22.674C74.7207 22.5842 75.138 22.3617 75.4656 22.0346C75.7932 21.7075 76.0165 21.2906 76.1071 20.8366C76.1977 20.3826 76.1516 19.912 75.9746 19.4842C75.7976 19.0564 75.4977 18.6907 75.1129 18.4334C74.728 18.1762 74.2755 18.0388 73.8125 18.0388C73.1926 18.0388 72.5981 18.2848 72.1594 18.7227C71.7207 19.1607 71.4737 19.7548 71.4727 20.3747Z" fill="#0366A3"/>
<path d="M59.3806 4.99167C59.8742 4.99167 60.3568 4.84529 60.7672 4.57105C61.1777 4.2968 61.4976 3.90701 61.6865 3.45095C61.8754 2.9949 61.9248 2.49307 61.8285 2.00892C61.7322 1.52478 61.4945 1.08007 61.1454 0.731017C60.7964 0.381968 60.3517 0.144259 59.8675 0.0479568C59.3834 -0.0483455 58.8816 0.00108457 58.4255 0.189988C57.9694 0.378892 57.5796 0.698789 57.3054 1.10923C57.0311 1.51966 56.8848 2.00221 56.8848 2.49584C56.8842 2.82375 56.9484 3.14853 57.0737 3.45158C57.1989 3.75462 57.3828 4.02997 57.6146 4.26184C57.8465 4.4937 58.1218 4.67752 58.4249 4.80276C58.7279 4.928 59.0527 4.9922 59.3806 4.99167Z" fill="#0366A3"/>
<path d="M20.7439 21.0507C20.6639 20.9609 20.5613 20.8942 20.4469 20.8573C20.3324 20.8204 20.2102 20.8147 20.0929 20.8408C19.9755 20.8669 19.8672 20.9238 19.7791 21.0057C19.6911 21.0876 19.6265 21.1915 19.592 21.3067L12.3924 44.7931C12.1313 45.6374 12.0974 46.5356 12.294 47.3972C12.4906 48.2588 12.9108 49.0533 13.5124 49.7008L27.4874 64.7678C27.5649 64.8515 27.6623 64.9144 27.7706 64.9503C27.8789 64.9863 27.9945 64.9943 28.1067 64.9735C28.2189 64.9528 28.324 64.9039 28.4123 64.8316C28.5005 64.7592 28.569 64.6657 28.6114 64.5598L35.3029 47.9129C35.3528 47.7883 35.3643 47.6516 35.3357 47.5204C35.3072 47.3892 35.2401 47.2696 35.1429 47.1769C33.7339 45.8111 32.6124 44.1771 31.8444 42.3712C31.0765 40.5653 30.6776 38.624 30.6712 36.6616C30.671 35.4265 30.8296 34.1965 31.1432 33.0019C31.1718 32.8937 31.1732 32.7802 31.1474 32.6714C31.1216 32.5625 31.0693 32.4617 30.9952 32.3779L20.7439 21.0507Z" fill="#EA7B43"/>
<path d="M31.2673 14.7551L38.7428 23.0345C38.8392 23.1389 38.9659 23.2105 39.1051 23.2392C39.2442 23.2679 39.3889 23.2523 39.5187 23.1945C41.3384 22.4024 43.3018 21.9939 45.2863 21.9946C48.0431 22.009 50.7408 22.7952 53.0736 24.2642C55.4064 25.7332 57.2812 27.8262 58.4855 30.306C58.5407 30.4285 58.631 30.5318 58.7449 30.6029C58.8588 30.6741 58.9912 30.71 59.1254 30.706L71.7126 30.1141C71.8423 30.1089 71.9677 30.0664 72.0739 29.9918C72.1802 29.9172 72.2627 29.8137 72.3116 29.6935C72.3605 29.5732 72.3738 29.4415 72.3499 29.3139C72.3259 29.1864 72.2658 29.0684 72.1766 28.9741L55.3377 10.8033C54.7344 10.1557 53.972 9.6776 53.1263 9.41654C52.2806 9.15547 51.3813 9.12061 50.518 9.31542L31.6193 13.6431C31.505 13.6703 31.3997 13.7266 31.3137 13.8066C31.2277 13.8866 31.1638 13.9874 31.1284 14.0994C31.0929 14.2114 31.0871 14.3306 31.1114 14.4455C31.1358 14.5604 31.1895 14.6671 31.2673 14.7551Z" fill="#83C448"/>
<path d="M66.961 61.636L73.7246 39.6375C73.7585 39.5263 73.7633 39.4083 73.7386 39.2947C73.7138 39.1811 73.6604 39.0757 73.5834 38.9887C73.5064 38.9016 73.4083 38.8358 73.2986 38.7974C73.1888 38.759 73.0711 38.7494 72.9566 38.7695L59.6175 41.1294C59.4998 41.1507 59.3899 41.2031 59.2992 41.2812C59.2084 41.3592 59.1402 41.4601 59.1015 41.5733C58.1955 44.0933 56.6196 46.3186 54.5435 48.01C52.4673 49.7013 49.9694 50.7948 47.3183 51.1727C47.2014 51.1869 47.0901 51.2312 46.9955 51.3013C46.9008 51.3714 46.826 51.4649 46.7784 51.5727L39.6308 69.3595C39.583 69.4763 39.5686 69.6041 39.5893 69.7286C39.6099 69.8532 39.6649 69.9695 39.7479 70.0645C39.8309 70.1596 39.9388 70.2297 40.0594 70.2669C40.18 70.3042 40.3086 70.3071 40.4308 70.2754L63.2893 65.0438C64.1459 64.8467 64.9359 64.4282 65.5802 63.8302C66.2245 63.2322 66.7007 62.4756 66.961 61.636Z" fill="#DC1F2B"/>
<path d="M108.966 37.3296H106.91L98.3623 16.4669H100.578L107.938 34.7577L115.325 16.4669H117.537L108.966 37.3296Z" fill="#303030" stroke="#303030" stroke-miterlimit="10"/>
<path d="M129.313 20.0668H127.285V16.467H129.313V20.0668ZM129.313 37.3297H127.285V21.9067H129.313V37.3297Z" fill="#303030" stroke="#303030" stroke-miterlimit="10"/>
<path d="M141.935 37.3296H139.771V21.9066H141.691V24.0985C142.122 23.2774 142.793 22.6075 143.615 22.1786C144.351 21.7796 145.179 21.5835 146.015 21.6106V23.6665C145.171 23.6644 144.351 23.9462 143.687 24.4664C143.223 24.825 142.818 25.2542 142.487 25.7384C142.106 26.4715 141.928 27.2931 141.971 28.1182L141.935 37.3296Z" fill="#303030" stroke="#303030" stroke-miterlimit="10"/>
<path d="M161.534 37.6535C157.774 37.6535 155.906 36.0536 155.906 32.8538V16.4949H157.99V21.8785H161.534V23.8024H157.99V32.5138C157.99 34.8137 159.19 35.9496 161.534 35.9496V37.6535Z" fill="#303030" stroke="#303030" stroke-miterlimit="10"/>
<path d="M185.317 30.6979C185.345 31.6207 185.187 32.5396 184.852 33.3999C184.518 34.2603 184.013 35.0444 183.369 35.7056C182.743 36.3613 181.986 36.8781 181.147 37.2227C180.309 37.5672 179.407 37.7317 178.501 37.7055C177.59 37.7295 176.685 37.5641 175.841 37.2199C174.998 36.8756 174.235 36.36 173.601 35.7056C172.967 35.039 172.47 34.2533 172.141 33.3938C171.811 32.5343 171.655 31.6181 171.682 30.6979V21.8985H173.765V30.9339C173.757 31.56 173.878 32.181 174.12 32.7584C174.362 33.3357 174.721 33.857 175.173 34.2897C175.607 34.7311 176.125 35.0807 176.697 35.3177C177.269 35.5548 177.882 35.6745 178.501 35.6696C179.751 35.652 180.945 35.1473 181.829 34.2629C182.713 33.3784 183.216 32.1841 183.233 30.9339V21.9065H185.317V30.6979Z" fill="#303030" stroke="#303030" stroke-miterlimit="10"/>
<path d="M211.779 37.3295H209.779V34.9297C209.037 35.8387 208.093 36.5617 207.022 37.0409C205.951 37.5201 204.783 37.7422 203.611 37.6895C202.586 37.6649 201.575 37.4341 200.641 37.0108C199.706 36.5875 198.867 35.9804 198.172 35.2256C196.703 33.683 195.898 31.6262 195.929 29.4966C195.959 27.3669 196.823 25.3342 198.336 23.8344C199.072 23.0555 199.969 22.4464 200.964 22.0492C201.959 21.652 203.029 21.4764 204.099 21.5346C205.14 21.5577 206.164 21.7904 207.113 22.2185C208.061 22.6466 208.913 23.2615 209.619 24.0264C210.349 24.753 210.918 25.6247 211.29 26.5851C211.662 27.5455 211.829 28.5733 211.779 29.602V37.3415V37.3295ZM198.008 29.454C197.957 31.0344 198.532 32.571 199.608 33.7298C200.114 34.3066 200.733 34.7744 201.426 35.1044C202.119 35.4345 202.872 35.62 203.639 35.6496C204.446 35.7013 205.255 35.5702 206.004 35.2662C206.753 34.9622 207.424 34.4931 207.967 33.8937C208.547 33.3075 209.002 32.6096 209.305 31.8423C209.607 31.0751 209.751 30.2544 209.727 29.43C209.714 27.8683 209.093 26.3732 207.995 25.2623C207.483 24.7061 206.859 24.2644 206.164 23.9659C205.469 23.6675 204.719 23.5191 203.963 23.5304C203.182 23.5151 202.407 23.661 201.685 23.959C200.963 24.257 200.31 24.7007 199.768 25.2623C199.207 25.8067 198.763 26.4586 198.46 27.1788C198.158 27.8991 198.004 28.6729 198.008 29.454Z" fill="#303030" stroke="#303030" stroke-miterlimit="10"/>
<path d="M224.33 37.3296H222.274V16.4669H224.33V37.3296Z" fill="#303030" stroke="#303030" stroke-miterlimit="10"/>
<path d="M113.686 62.6599H111.686V53.0845H101.075V62.6599H99.0469V41.8613H101.075V51.1166H111.682V41.8533H113.682L113.686 62.6599Z" fill="#EA7B43"/>
<path d="M131.836 62.6598H129.837V60.26C129.094 61.1685 128.15 61.8912 127.08 62.3703C126.009 62.8495 124.841 63.0719 123.669 63.0198C122.643 62.9982 121.632 62.7691 120.697 62.3464C119.763 61.9236 118.923 61.3159 118.229 60.56C116.761 59.0173 115.956 56.9605 115.986 54.8308C116.017 52.7012 116.881 50.6685 118.393 49.1687C119.129 48.3902 120.025 47.7811 121.02 47.384C122.014 46.9868 123.083 46.811 124.153 46.8689C125.193 46.8895 126.219 47.1205 127.167 47.5481C128.116 47.9757 128.968 48.5909 129.673 49.3567C130.404 50.0821 130.975 50.9535 131.348 51.9141C131.721 52.8747 131.887 53.9031 131.836 54.9323V62.6678V62.6598ZM118.065 54.8003C118.014 56.3807 118.589 57.9173 119.665 59.076C120.172 59.6519 120.79 60.119 121.482 60.449C122.175 60.779 122.927 60.9651 123.693 60.9959C124.501 61.0462 125.309 60.9142 126.059 60.6095C126.809 60.3049 127.481 59.8355 128.025 59.236C128.605 58.6501 129.06 57.9522 129.362 57.1848C129.664 56.4174 129.806 55.5966 129.781 54.7723C129.769 53.2112 129.149 51.7161 128.053 50.6046C127.54 50.0484 126.916 49.6067 126.222 49.3082C125.527 49.0098 124.777 48.8614 124.021 48.8727C123.24 48.8574 122.464 49.0033 121.743 49.3013C121.021 49.5993 120.368 50.043 119.825 50.6046C119.265 51.1496 118.82 51.8022 118.518 52.5231C118.215 53.244 118.061 54.0186 118.065 54.8003Z" fill="#EA7B43"/>
<path d="M136.004 62.6598H133.84V47.2408H135.76V49.4287C136.191 48.6083 136.862 47.9387 137.684 47.5088C138.42 47.1118 139.247 46.9159 140.083 46.9408V48.9967C139.24 48.9965 138.421 49.278 137.756 49.7967C137.291 50.1552 136.887 50.5844 136.556 51.0686C136.171 51.8077 135.993 52.6367 136.04 53.4684L136.004 62.6598Z" fill="#EA7B43"/>
<path d="M157.81 55.0323C157.847 56.1083 157.651 57.1795 157.237 58.1732C156.823 59.167 156.2 60.0601 155.41 60.7919C154.661 61.5607 153.758 62.1629 152.76 62.5592C151.762 62.9555 150.692 63.1369 149.619 63.0918C148.59 63.0805 147.575 62.8589 146.636 62.4407C145.696 62.0225 144.852 61.4165 144.155 60.6599C142.697 59.1103 141.902 57.0533 141.937 54.9261C141.972 52.799 142.835 50.7693 144.343 49.2687C145.074 48.4889 145.965 47.877 146.955 47.4751C147.946 47.0732 149.011 46.8909 150.079 46.9408C151.166 46.9649 152.236 47.2211 153.216 47.6922C154.196 48.1634 155.064 48.8386 155.762 49.6727V41.9092H157.79L157.81 55.0323ZM149.667 61.0639C150.475 61.1207 151.285 60.9916 152.035 60.6866C152.785 60.3815 153.456 59.9085 153.995 59.304C154.577 58.7268 155.032 58.0338 155.331 57.2698C155.629 56.5057 155.764 55.6876 155.726 54.8683C155.717 53.306 155.095 51.8098 153.995 50.7006C153.485 50.1421 152.862 49.6987 152.168 49.4001C151.473 49.1014 150.723 48.9543 149.967 48.9687C149.186 48.9505 148.409 49.095 147.687 49.3932C146.964 49.6914 146.312 50.1366 145.771 50.7006C145.211 51.2456 144.766 51.8981 144.463 52.6191C144.161 53.34 144.007 54.1145 144.011 54.8963C143.97 56.4795 144.553 58.0155 145.635 59.172C146.138 59.7516 146.756 60.2195 147.45 60.5453C148.145 60.8712 148.9 61.0478 149.667 61.0639Z" fill="#EA7B43"/>
<path d="M177.133 62.6599H174.733L171.377 52.4606L168.213 62.6599H165.858L160.002 47.2409H162.194L166.994 60.092L170.565 49.1048H172.333L175.829 60.0001L180.701 47.2329H182.916L177.133 62.6599Z" fill="#EA7B43"/>
<path d="M200.56 62.6599H198.56V60.2601C197.819 61.1691 196.875 61.8921 195.804 62.3713C194.733 62.8505 193.565 63.0726 192.393 63.0199C191.367 62.9969 190.357 62.7673 189.422 62.3446C188.487 61.9219 187.648 61.315 186.953 60.5601C185.484 59.0149 184.68 56.9552 184.714 54.8236C184.748 52.6921 185.616 50.6588 187.133 49.1608C187.869 48.382 188.766 47.7728 189.761 47.3756C190.757 46.9784 191.827 46.8028 192.897 46.861C193.937 46.8825 194.962 47.114 195.91 47.5415C196.859 47.969 197.711 48.5837 198.416 49.3488C199.148 50.0746 199.718 50.9461 200.091 51.9066C200.464 52.8671 200.63 53.8953 200.58 54.9244V62.6599H200.56ZM186.789 54.8004C186.738 56.3808 187.313 57.9174 188.389 59.0761C188.896 59.6521 189.515 60.1193 190.208 60.4493C190.901 60.7792 191.654 60.9652 192.421 60.996C193.228 61.046 194.036 60.9138 194.785 60.6092C195.534 60.3045 196.205 59.8353 196.748 59.2361C197.873 58.0826 198.504 56.5369 198.51 54.9261C198.515 53.3152 197.893 51.7655 196.776 50.6047C196.264 50.0444 195.639 49.5992 194.942 49.2986C194.245 48.998 193.492 48.8488 192.733 48.8608C191.952 48.8451 191.177 48.9908 190.456 49.2889C189.734 49.5869 189.083 50.0308 188.541 50.5927C187.98 51.1398 187.536 51.7946 187.235 52.5177C186.934 53.2408 186.782 54.0172 186.789 54.8004Z" fill="#EA7B43"/>
<path d="M204.731 62.6599H202.567V47.2409H204.487V49.4288C204.916 48.6078 205.586 47.9378 206.407 47.5089C207.143 47.1118 207.971 46.9159 208.807 46.9409V48.9968C207.965 48.9965 207.147 49.2781 206.483 49.7967C206.012 50.1542 205.601 50.5834 205.263 51.0686C204.88 51.8081 204.703 52.6371 204.751 53.4685L204.731 62.6599Z" fill="#EA7B43"/>
<path d="M225.966 57.6002C225.441 59.197 224.416 60.5824 223.043 61.552C221.708 62.5064 220.112 63.0259 218.471 63.0398C217.43 63.0571 216.397 62.862 215.434 62.4666C214.472 62.0712 213.599 61.4837 212.871 60.74C212.089 59.9917 211.466 59.0937 211.038 58.0993C210.61 57.105 210.387 56.0347 210.382 54.9523C210.377 53.8699 210.589 52.7975 211.008 51.799C211.426 50.8006 212.04 49.8965 212.815 49.1408C213.579 48.336 214.511 47.7092 215.544 47.3048C216.578 46.9004 217.688 46.7284 218.795 46.8009C220.841 46.9275 222.76 47.8387 224.151 49.3448C224.84 50.0248 225.388 50.8341 225.764 51.7263C226.14 52.6185 226.337 53.5762 226.342 54.5444V55.6523H212.491C212.619 57.1435 213.329 58.5245 214.467 59.4961C215.59 60.4926 217.05 61.0246 218.551 60.984C220.987 60.956 222.719 59.8201 223.775 57.6002H225.966ZM224.331 53.7605C224.076 52.3983 223.359 51.1653 222.303 50.2687C221.5 49.5846 220.532 49.124 219.495 48.9334C218.458 48.7427 217.389 48.8288 216.396 49.1828C215.402 49.5369 214.52 50.1464 213.837 50.9501C213.155 51.7537 212.696 52.7231 212.507 53.7605H224.331Z" fill="#EA7B43"/>
<path d="M247.341 54.8844V59.3681C247.341 61.7399 245.981 63.4278 243.485 63.4278H231.714V61.8639H243.769C244.383 61.8273 244.958 61.5499 245.369 61.0919C245.693 60.768 245.853 60.2 245.853 59.3681V54.8844H247.341Z" fill="#DC1F2B"/>
<path d="M247.341 36.0296V37.5335H245.529C246.211 38.09 246.754 38.7983 247.113 39.6018C247.473 40.4053 247.64 41.2818 247.601 42.1612C247.582 42.9299 247.409 43.6869 247.092 44.3871C246.774 45.0874 246.319 45.7165 245.753 46.2369C244.597 47.3408 243.055 47.9468 241.457 47.9244C239.859 47.9019 238.334 47.2529 237.209 46.1169C236.626 45.5643 236.169 44.8914 235.872 44.1448C235.574 43.3982 235.442 42.5958 235.486 41.7932C235.501 41.0128 235.675 40.2437 235.996 39.5322C236.317 38.8207 236.779 38.1816 237.353 37.6535C237.897 37.1058 238.55 36.6782 239.269 36.3985C239.988 36.1187 240.758 35.9931 241.529 36.0296H247.333H247.341ZM241.433 46.3609C242.616 46.3991 243.767 45.9677 244.633 45.161C245.065 44.7809 245.416 44.3168 245.664 43.797C245.911 43.2772 246.05 42.7125 246.073 42.1372C246.112 41.5314 246.013 40.9247 245.784 40.3623C245.556 39.8 245.203 39.2965 244.753 38.8894C244.314 38.4536 243.79 38.1118 243.215 37.8849C242.639 37.658 242.024 37.5507 241.405 37.5695C240.234 37.5791 239.113 38.0455 238.281 38.8694C237.864 39.2533 237.532 39.7212 237.308 40.2423C237.084 40.7635 236.973 41.3261 236.981 41.8932C236.971 42.4784 237.08 43.0596 237.304 43.6005C237.528 44.1414 237.86 44.6304 238.281 45.037C238.69 45.4589 239.18 45.7936 239.722 46.0211C240.264 46.2486 240.846 46.3642 241.433 46.3609Z" fill="#DC1F2B"/>
<path d="M241.453 28.002H231.693V26.4781H237.529C236.9 25.9582 236.392 25.3082 236.038 24.5728C235.684 23.8374 235.495 23.0342 235.481 22.2184C235.44 21.419 235.572 20.6202 235.87 19.8771C236.168 19.134 236.623 18.4645 237.205 17.9147C238.323 16.7704 239.848 16.1137 241.448 16.0875C243.048 16.0613 244.593 16.6676 245.748 17.7747C246.314 18.2993 246.77 18.932 247.087 19.6355C247.404 20.339 247.578 21.0989 247.596 21.8704C247.609 22.6738 247.461 23.4716 247.162 24.2171C246.862 24.9626 246.417 25.6408 245.852 26.2119C245.286 26.783 244.613 27.2355 243.871 27.5429C243.128 27.8503 242.332 28.0064 241.529 28.002H241.453ZM244.653 18.8666C243.787 18.0584 242.636 17.6268 241.453 17.6667C240.869 17.6697 240.292 17.7899 239.755 18.02C239.218 18.2502 238.733 18.5857 238.329 19.0066C237.904 19.4071 237.567 19.8917 237.34 20.4295C237.113 20.9673 237 21.5466 237.009 22.1304C237 22.6976 237.112 23.2602 237.336 23.7813C237.56 24.3024 237.891 24.7703 238.309 25.1542C239.141 25.9781 240.262 26.4446 241.433 26.4541C242.05 26.4821 242.667 26.3809 243.244 26.1571C243.82 25.9333 244.344 25.5917 244.781 25.1542C245.228 24.7448 245.578 24.2409 245.807 23.6792C246.035 23.1174 246.135 22.5118 246.1 21.9064C246.08 21.3258 245.94 20.7557 245.689 20.2319C245.438 19.708 245.081 19.2419 244.641 18.8626L244.653 18.8666Z" fill="#DC1F2B"/>
</svg>
